<svg width="120" height="25" viewBox="0 0 120 25" fill="none" xmlns="http://www.w3.org/2000/svg">
<g clip-path="url(#clip0_643_5)">
<path fill-rule="evenodd" clip-rule="evenodd" d="M58.3859 25C64.683 25 69.5619 22.6323 70.5102 17.2912C70.9124 15.0202 70.5165 13.0394 67.7247 11.456C66.0313 10.4971 63.576 9.14921 62.1113 8.33123C60.8392 7.62049 60.5873 6.97704 60.7206 6.22845C60.9259 5.07402 62.179 4.56514 63.3855 4.56514C65.7667 4.56514 68.819 5.88359 70.1842 6.44293L72.9909 1.45302C70.6076 0.622424 68.3448 0 64.9688 0C59.1733 0 54.2246 2.52544 53.3271 7.57423C52.9398 9.76112 53.5176 11.6116 55.6893 12.9405C56.9191 13.6933 59.1204 14.9214 61.1207 15.9791C62.5029 16.7087 63.4448 17.4762 63.3135 18.2164C63.1146 19.3372 62.0245 19.968 60.0666 19.968C57.2302 19.968 52.5058 17.8169 52.5058 17.8169L49.6653 23.5323C51.4242 24.3565 55.4184 25 58.3838 25H58.3859Z" fill="white"/>
<path fill-rule="evenodd" clip-rule="evenodd" d="M51.0836 12.4968C49.8496 19.4024 43.5377 25 36.267 25C28.9962 25 24.691 19.4024 25.925 12.4968C27.159 5.59761 33.4709 0 40.7374 0C48.0039 0 52.3176 5.59761 51.0815 12.4968H51.0836ZM39.9711 4.3044C36.4427 4.3044 33.7101 7.7782 32.8655 12.4968C32.021 17.2218 33.5301 20.5757 37.0586 20.5757C40.5871 20.5757 43.2985 17.2218 44.1452 12.4968C44.9876 7.7761 43.4996 4.3044 39.9733 4.3044H39.9711Z" fill="white"/>
<path fill-rule="evenodd" clip-rule="evenodd" d="M16.5819 11.4475L11.2162 0.578247H2.35161L2.33256 0.685489C3.23215 1.68641 3.83539 2.81771 3.53906 4.48943L0 24.4217H5.88856L8.07296 12.112C8.2317 11.2225 8.44972 10.0071 8.47724 9.61391H8.53227C8.68467 10.0408 9.09107 10.863 9.36624 11.4055L15.7924 24.4217H21.3339L25.5672 0.578247H19.6786L17.8752 10.7431C17.7165 11.6326 17.4985 12.848 17.4709 13.2412H17.418C17.2656 12.8143 16.8592 11.9922 16.5841 11.4496L16.5819 11.4475Z" fill="white"/>
<path fill-rule="evenodd" clip-rule="evenodd" d="M111.015 11.4475L105.649 0.578247H96.7846L96.7655 0.685489C97.6651 1.68641 98.2683 2.81771 97.972 4.48943L94.4351 24.4217H100.324L102.508 12.112C102.667 11.2225 102.885 10.0071 102.912 9.61391H102.965C103.118 10.0408 103.524 10.863 103.799 11.4055L110.225 24.4217H115.767L119.998 0.578247H114.109L112.306 10.7431C112.147 11.6326 111.929 12.848 111.902 13.2412H111.849C111.696 12.8143 111.29 11.9922 111.015 11.4496V11.4475Z" fill="white"/>
<path fill-rule="evenodd" clip-rule="evenodd" d="M80.8268 2.83874L68.8042 24.4217H74.2186L81.7391 10.4655C81.9212 10.127 82.7869 8.43635 82.9964 7.96743H83.0472C83.0896 8.43635 83.3541 10.127 83.4176 10.4655L85.9852 24.4196H93.2961L88.576 0.578247H79.8193L79.8003 0.685489C80.321 1.29319 80.6469 2.04178 80.8268 2.83664V2.83874Z" fill="white"/>
</g>
<defs>
<clipPath id="clip0_643_5">
<rect width="120" height="25" fill="white"/>
</clipPath>
</defs>
</svg>
