<svg width="52" height="37" viewBox="0 0 52 37" fill="none" xmlns="http://www.w3.org/2000/svg">
<mask id="mask0_3_54" style="mask-type:luminance" maskUnits="userSpaceOnUse" x="0" y="0" width="52" height="37">
<path d="M51.5557 0H0V36.0885H51.5557V0Z" fill="white"/>
</mask>
<g mask="url(#mask0_3_54)">
<path d="M50.4776 5.635C50.1846 4.54174 49.6093 3.54471 48.8095 2.74383C48.0097 1.94295 47.0135 1.36637 45.9206 1.07187C41.8995 0 25.777 0 25.777 0C25.777 0 9.65599 0 5.63493 1.07187C4.54094 1.36543 3.54341 1.9416 2.74247 2.74254C1.94153 3.54348 1.36536 4.541 1.07181 5.635C0.330796 9.72721 -0.0280405 13.8795 -6.97256e-05 18.0381C-0.0280228 22.1968 0.330814 26.349 1.07181 30.4412C1.36405 31.5367 1.93964 32.5359 2.74068 33.3383C3.54172 34.1407 4.53995 34.718 5.63493 35.012C9.65599 36.0839 25.777 36.0839 25.777 36.0839C25.777 36.0839 41.8995 36.0839 45.9191 35.012C47.0117 34.7183 48.008 34.1426 48.8081 33.3425C49.6081 32.5424 50.1839 31.5462 50.4776 30.4535C51.2186 26.3613 51.5774 22.209 51.5495 18.0504C51.5774 13.8917 51.2186 9.73946 50.4776 5.64725M20.6182 25.7893V10.3114L34.0121 18.0443L20.6182 25.7893Z" fill="#B60024"/>
</g>
</svg>
