<svg width="49" height="49" viewBox="0 0 49 49" fill="none" xmlns="http://www.w3.org/2000/svg">
<mask id="mask0_3_50" style="mask-type:luminance" maskUnits="userSpaceOnUse" x="0" y="0" width="49" height="49">
<path d="M49 0H0V49H49V0Z" fill="white"/>
</mask>
<g mask="url(#mask0_3_50)">
<path d="M24.5016 4.41459C31.0431 4.41459 31.8179 4.43909 34.4011 4.557C35.9547 4.57543 37.4936 4.86082 38.9505 5.40072C40.0152 5.79484 40.978 6.42275 41.768 7.23822C42.5835 8.02814 43.2114 8.99095 43.6055 10.0557C44.1453 11.5126 44.4307 13.0515 44.4492 14.6051C44.5671 17.1883 44.5916 17.9631 44.5916 24.5046C44.5916 31.0461 44.5671 31.8209 44.4492 34.4041C44.4307 35.9577 44.1453 37.4966 43.6055 38.9535C43.1978 40.0102 42.5734 40.9699 41.7724 41.7708C40.9715 42.5718 40.0118 43.1962 38.9551 43.6039C37.4982 44.1438 35.9593 44.4292 34.4057 44.4476C31.8225 44.5655 31.0477 44.59 24.5062 44.59C17.9647 44.59 17.1899 44.5655 14.6066 44.4476C13.0531 44.4291 11.5142 44.1437 10.0573 43.6039C8.99258 43.2097 8.0298 42.5818 7.23981 41.7664C6.42434 40.9764 5.79643 40.0136 5.40231 38.9489C4.8625 37.492 4.5771 35.9531 4.55859 34.3995C4.44221 31.8163 4.41465 31.0415 4.41465 24.5C4.41465 17.9585 4.43915 17.1837 4.55706 14.6005C4.57557 13.0469 4.86097 11.508 5.40077 10.0511C5.7949 8.98638 6.42281 8.02358 7.23827 7.23362C8.02826 6.4182 8.99105 5.79029 10.0558 5.39612C11.5127 4.85626 13.0515 4.57086 14.6051 4.55241C17.1837 4.44063 17.9586 4.41459 24.5016 4.41459ZM24.5016 0C17.8483 0 17.0138 0.0275625 14.3953 0.153125C12.3641 0.192377 10.3542 0.575508 8.45103 1.28625C6.81683 1.9014 5.33643 2.86552 4.11299 4.11141C2.86637 5.33513 1.90171 6.81608 1.28631 8.45097C0.576227 10.3538 0.193617 12.3631 0.154712 14.3937C0.0276182 17.0122 0.00158691 17.8467 0.00158691 24.5C0.00158691 31.1533 0.0291494 31.9878 0.154712 34.6063C0.195551 36.6389 0.580761 38.6498 1.29396 40.5536C1.90937 42.1885 2.87402 43.6695 4.12065 44.8932C5.34232 46.1365 6.81998 47.099 8.45103 47.7137C10.3542 48.4245 12.3641 48.8076 14.3953 48.8469C17.0076 48.9663 17.8422 49 24.5016 49C31.161 49 31.9894 48.9724 34.6078 48.8469C36.6404 48.806 38.6514 48.4208 40.5552 47.7076C42.1825 47.0781 43.6604 46.1157 44.8942 44.8819C46.128 43.6481 47.0904 42.1702 47.7199 40.5429C48.4283 38.6418 48.8098 36.6346 48.8485 34.6063C48.9679 31.9924 49.0016 31.1594 49.0016 24.5C49.0016 17.8406 48.974 17.0122 48.8485 14.3937C48.8076 12.3611 48.4224 10.3502 47.7092 8.44637C47.0942 6.81165 46.1301 5.33072 44.8841 4.10681C43.661 2.86299 42.1817 1.9005 40.5491 1.28625C38.6468 0.575847 36.638 0.192722 34.6078 0.153125C31.9879 0.0275625 31.1533 0 24.5016 0Z" fill="#B60024"/>
<path d="M24.5001 11.9194C22.0118 11.9194 19.5795 12.6573 17.5106 14.0397C15.4417 15.4221 13.8292 17.3869 12.877 19.6857C11.9248 21.9846 11.6756 24.5141 12.1611 26.9546C12.6465 29.395 13.8447 31.6367 15.6041 33.3961C17.3636 35.1556 19.6053 36.3538 22.0457 36.8392C24.4861 37.3246 27.0157 37.0755 29.3145 36.1233C31.6133 35.1711 33.5782 33.5586 34.9606 31.4897C36.343 29.4208 37.0808 26.9884 37.0808 24.5002C37.0808 21.1636 35.7554 17.9636 33.396 15.6042C31.0367 13.2449 27.8367 11.9194 24.5001 11.9194ZM24.5001 32.6679C22.8849 32.6679 21.3061 32.1889 19.9632 31.2916C18.6203 30.3943 17.5736 29.1189 16.9555 27.6268C16.3374 26.1346 16.1757 24.4927 16.4908 22.9086C16.8059 21.3245 17.5837 19.8694 18.7257 18.7274C19.8678 17.5853 21.3229 16.8076 22.9069 16.4925C24.491 16.1774 26.1329 16.3391 27.6251 16.9572C29.1173 17.5752 30.3927 18.6219 31.29 19.9648C32.1873 21.3078 32.6662 22.8866 32.6662 24.5017C32.6662 26.6675 31.8059 28.7446 30.2744 30.2761C28.743 31.8075 26.6659 32.6679 24.5001 32.6679Z" fill="#B60024"/>
<path d="M40.5185 11.4215C40.5185 12.0029 40.346 12.5714 40.023 13.0548C39.6999 13.5383 39.2407 13.9151 38.7035 14.1377C38.1663 14.3602 37.5752 14.4184 37.0049 14.305C36.4346 14.1915 35.9107 13.9115 35.4996 13.5003C35.0884 13.0892 34.8084 12.5653 34.6949 11.995C34.5815 11.4247 34.6397 10.8336 34.8623 10.2964C35.0848 9.75914 35.4616 9.29999 35.9451 8.97694C36.4286 8.65388 36.997 8.48145 37.5784 8.48145C37.9645 8.48145 38.3468 8.5575 38.7035 8.70525C39.0602 8.853 39.3843 9.06955 39.6573 9.34255C39.9303 9.61556 40.1469 9.93966 40.2947 10.2964C40.4424 10.6531 40.5185 11.0354 40.5185 11.4215Z" fill="#B60024"/>
</g>
</svg>
