<svg width="1067" height="269" viewBox="0 0 1067 269" fill="none" xmlns="http://www.w3.org/2000/svg">
<path d="M21.0747 215.081C14.4984 214.526 9.3821 212.849 5.73795 210.074C1.0802 206.502 -0.741871 200.963 0.271732 193.458C0.730267 190.127 1.4422 187.328 2.41961 185.096C3.40908 182.743 4.25375 181.512 4.92948 181.415C5.84655 181.295 6.14822 182.368 5.83448 184.625L5.47248 187.304C4.47095 194.689 7.89789 199.491 15.7654 201.687C20.942 203.087 27.5184 203.232 35.5065 202.146C41.9984 201.253 51.2053 199.008 63.1031 195.388C69.969 193.397 74.3734 192.263 76.3161 191.998C79.2725 191.587 81.4445 191.877 82.8201 192.854C84.1957 193.832 84.7508 195.34 84.4732 197.367C84.0147 200.71 80.817 203.654 74.8802 206.224C71.3205 207.769 66.6628 209.277 60.919 210.761C55.1873 212.246 49.2384 213.416 43.0723 214.261C34.9756 215.371 27.639 215.648 21.0627 215.081H21.0747ZM36.1943 132.75C36.2788 132.159 36.7011 131.447 37.4855 130.638C39.6937 128.346 42.5173 125.679 45.9563 122.638C48.0076 120.72 49.8659 118.946 51.5432 117.317C53.2204 115.688 54.0772 114.686 54.1254 114.336C54.3064 113.033 52.1103 112.273 47.5491 112.08C43.555 111.814 39.8626 110.584 36.4719 108.424C33.0811 106.252 30.5712 104.116 28.9543 101.992C28.5802 101.461 28.2424 100.798 27.9648 100.025C27.6752 99.253 27.5787 98.5652 27.6511 97.9618C27.7114 97.4912 27.8562 97.2378 28.0976 97.2016L28.7612 97.2861C29.075 97.4792 29.5697 97.7326 30.2575 98.0463C30.9332 98.36 31.9227 98.7824 33.1897 99.3133C35.7358 100.375 38.9817 101.099 42.9637 101.485C46.9337 101.884 50.5175 101.859 53.7152 101.413C56.7922 100.991 60.3639 100.218 64.4304 99.072C68.5934 98.0342 71.4774 97.4068 73.0822 97.1896C74.4458 96.9965 75.6163 97.0206 76.6057 97.2378C78.2347 97.5998 79.7189 98.6014 81.0704 100.218C82.4098 101.847 82.9408 103.73 82.6511 105.878C82.4581 107.301 81.7099 108.46 80.4188 109.341C79.1277 110.222 76.4006 111.175 72.2255 112.213C62.5842 114.819 51.7483 121.335 39.7057 131.749C38.4508 132.738 37.5458 133.269 36.9666 133.353C36.3995 133.426 36.1461 133.233 36.2064 132.762L36.1943 132.75Z" fill="white"/>
<path d="M172.162 84.7608C173.465 84.6402 174.467 84.6161 175.191 84.7005C175.903 84.7729 176.494 85.1952 176.952 85.9555C177.23 86.3899 177.302 87.0777 177.17 88.0309C176.928 89.8168 175.71 91.7354 173.538 93.7868C167.854 99.3616 161.953 104.08 155.836 107.965C154.122 109.015 152.976 110.523 152.373 112.478C146.436 131.531 141.259 147.568 136.867 160.564C132.475 173.56 128.565 183.973 125.162 191.817C121.132 200.903 118.031 205.597 115.871 205.899C114.049 206.152 112.492 205.633 111.213 204.342C109.934 203.051 109.451 201.217 109.777 198.84C109.982 197.295 111.358 194.182 113.892 189.5C118.103 181.56 122.194 172.872 126.152 163.436C132.583 148.171 138.194 133.257 142.973 118.68C143.117 118.427 143.238 118.005 143.31 117.401C143.443 116.448 143.214 115.808 142.647 115.471C142.08 115.145 141.199 115.169 140.028 115.567C137.929 116.207 135.853 116.665 133.802 116.943C131.292 117.281 128.758 117.015 126.188 116.146C123.618 115.265 121.337 113.974 119.334 112.261C118.32 111.464 117.862 110.765 117.946 110.173C117.994 109.811 118.296 109.594 118.875 109.522L121.735 109.486C123.943 109.654 126.308 109.558 128.818 109.22C134.634 108.424 140.185 106.614 145.494 103.778C147.28 102.945 148.487 101.497 149.102 99.4219C151.142 91.7716 152.409 86.2209 152.867 82.7698C153.35 79.1981 153.229 76.4107 152.493 74.3955C151.757 72.3925 150.538 70.9203 148.813 69.9912C147.099 69.0621 146.182 68.5432 146.086 68.4346C145.567 68.1571 145.338 67.783 145.398 67.3003C145.494 66.5884 146.339 66.1178 147.944 65.9006C149.308 65.7075 150.937 65.6713 152.831 65.7558C154.726 65.8523 156.355 66.154 157.742 66.6608C160.18 67.6141 161.905 68.7483 162.895 70.0757C163.884 71.403 164.21 73.3216 163.872 75.8194L163.727 76.8934L163.607 77.7863C163.365 79.5722 163.788 80.984 164.874 81.9976C166.454 83.5421 167.902 84.4471 169.206 84.7367C169.857 84.8815 170.835 84.8936 172.138 84.7729L172.162 84.7608ZM159.07 91.5544C158.985 92.1577 159.166 92.5077 159.6 92.6283C160.035 92.749 160.505 92.5318 161.024 91.9888C162.484 90.2753 163.269 89.0566 163.365 88.3326C162.11 85.2314 161.386 83.9282 161.217 84.4109C161.169 84.7729 160.964 85.4366 160.602 86.4261L159.142 91.0114L159.07 91.5423V91.5544ZM228.839 182.006C228.308 185.94 225.388 188.86 220.103 190.743C214.456 192.806 208.434 194.266 202.051 195.147C191.794 196.547 183.661 195.907 177.652 193.229C171.643 190.538 169.181 185.204 170.267 177.228C170.448 175.913 170.786 174.465 171.281 172.884C171.776 171.291 172.186 170.133 172.512 169.385C173.308 167.635 174.153 166.151 175.046 164.908C175.939 163.677 176.735 163.013 177.411 162.917C177.978 162.845 178.207 163.219 178.099 164.051L178.002 164.763L177.182 169.614C175.613 181.174 182.913 185.844 199.107 183.635C202.184 183.213 207.904 181.85 216.278 179.533C219.777 178.471 222.046 177.868 223.071 177.723C227.403 177.132 229.334 178.567 228.863 182.019L228.839 182.006ZM199.228 96.7552C197.333 95.5002 196.44 94.4504 196.549 93.6178C196.633 93.0265 197.068 92.6645 197.864 92.5559L200.362 92.7369C204.102 93.1593 207.059 93.2196 209.231 92.93C210.257 92.7852 212.622 92.2301 216.338 91.2527C219.825 90.3115 222.251 89.7444 223.614 89.5513C227.946 88.9601 231.253 89.3221 233.533 90.6494C235.814 91.9767 236.719 94.3659 236.248 97.817C236.091 99.0116 235.597 100.182 234.764 101.353C233.425 102.945 231.337 103.923 228.489 104.321C227.343 104.478 226.486 104.659 225.907 104.852C223.108 105.709 220.441 107 217.907 108.749C215.373 110.499 212.585 112.695 209.545 115.326C207.276 117.16 205.961 118.21 205.587 118.499C204.235 119.38 203.161 119.887 202.365 119.996C201.906 120.056 201.701 119.911 201.749 119.549C201.81 119.079 202.111 118.511 202.654 117.848C202.944 117.341 204.199 115.941 206.419 113.649C211.97 107.398 214.818 103.73 214.963 102.656C215.095 101.703 214.564 101.039 213.382 100.677C212.199 100.315 210.836 100.025 209.303 99.8322C207.759 99.6391 206.552 99.4822 205.671 99.3616C203.282 98.8668 201.134 97.998 199.24 96.731L199.228 96.7552ZM244.478 64.344C248.532 64.8991 251.995 66.2143 254.843 68.2777C257.691 70.3411 258.861 73.2854 258.342 77.0985C258.101 78.8844 257.317 80.3444 255.989 81.4546C254.662 82.5768 253.262 83.2284 251.778 83.4335C250.632 83.5904 249.51 83.4335 248.411 82.9267C247.301 82.432 246.505 81.527 246.01 80.1876C244.755 77.0864 243.271 74.6007 241.57 72.7303C239.868 70.86 237.455 69.4361 234.354 68.4587C233.931 68.2898 233.292 68.0847 232.423 67.8433C231.554 67.6141 230.951 67.3727 230.589 67.1314C230.227 66.8901 230.082 66.5281 230.142 66.0454C230.203 65.5748 230.565 65.1645 231.228 64.8387C231.88 64.5129 232.676 64.2957 233.581 64.163C236.767 63.7286 240.399 63.7889 244.466 64.344H244.478ZM262.879 48.7538C266.282 49.2244 269.227 50.3345 271.736 52.1083C274.234 53.8701 275.272 56.3558 274.838 59.5776C274.608 61.2428 273.957 62.534 272.883 63.439C271.809 64.344 270.759 64.8749 269.733 65.0077C266.994 65.3817 265.088 64.5853 264.014 62.6305C262.759 60.3499 261.323 58.5882 259.694 57.3453C258.077 56.1024 255.724 54.8234 252.671 53.4839C251.706 53.1461 250.849 52.8565 250.101 52.6031C249.353 52.3497 248.737 52.1204 248.267 51.8911C247.796 51.6619 247.579 51.3723 247.627 51.0103C247.772 49.9363 249.956 49.1158 254.167 48.5366C256.556 48.2108 259.452 48.2832 262.867 48.7538H262.879Z" fill="white"/>
<path d="M369.308 81.0323C374.726 83.5663 378.66 87.5362 381.121 92.93C383.571 98.3239 384.319 104.599 383.342 111.742C382.014 121.516 377.73 130.844 370.478 139.725C363.226 148.606 354.49 156.329 344.27 162.869C334.037 169.421 323.72 174.332 313.318 177.626C311.557 178.218 310.338 178.555 309.65 178.652C308.395 178.821 307.816 178.616 307.888 178.012C307.985 177.3 308.793 176.661 310.326 176.106C320.715 172.112 330.393 166.489 339.382 159.237C348.36 151.984 355.745 143.984 361.513 135.248C367.281 126.512 370.732 118.017 371.854 109.799C372.626 104.08 371.999 99.2289 369.972 95.2348C367.944 91.2407 364.831 88.3688 360.656 86.595C356.481 84.8333 351.654 84.3144 346.188 85.0625C339.117 86.0279 331.491 88.8877 323.298 93.6299C315.104 98.3842 307.297 104.599 299.876 112.273C298.561 113.745 297.716 115.374 297.366 117.172L295.81 127.38C293.915 141.318 293.264 153.577 293.843 164.136C294.024 166.103 293.988 168.033 293.722 169.94C293.36 172.558 292.66 174.646 291.61 176.19C290.561 177.735 289.414 178.592 288.159 178.773C286.446 179.002 285.058 178.519 283.996 177.325C282.922 176.13 282.331 174.308 282.222 171.87C282.066 165.572 281.293 157.258 279.906 146.929C279.688 145.203 278.952 144.431 277.71 144.6C276.792 144.72 275.912 145.493 275.043 146.892L268.949 157.197C266.319 161.771 263.688 164.232 261.07 164.594C259.815 164.763 258.825 164.401 258.113 163.508C257.401 162.615 257.148 161.397 257.353 159.84C257.413 159.369 257.631 158.633 257.98 157.644C258.777 155.074 260.394 152.226 262.831 149.088C265.269 145.951 269.347 141.064 275.055 134.44C275.984 133.378 276.515 132.304 276.66 131.242C276.72 130.771 276.708 130.071 276.611 129.142C274.065 117.45 271.821 110.499 269.878 108.315C268.02 106.348 267.175 104.707 267.356 103.392C267.513 102.197 268.165 101.328 269.311 100.761C270.445 100.194 271.531 99.8443 272.557 99.6995L275.779 99.434C278.059 99.1203 279.99 98.6497 281.595 98.0222C283.188 97.3947 284.853 96.5018 286.579 95.3192C289.161 93.5575 292.359 91.0235 296.172 87.6931C297.451 86.4623 298.404 84.8695 298.995 82.9147C300.178 77.4846 301.336 72.7183 302.458 68.5794C304.208 62.2565 305.306 57.4901 305.741 54.2683C306.561 48.1867 305.56 43.6496 302.724 40.645C302.434 40.3313 301.964 39.8727 301.312 39.2573C300.66 38.6419 300.371 38.1593 300.419 37.7973C300.504 37.206 301.059 36.8319 302.084 36.6871C303.677 36.4699 305.958 36.9767 308.926 38.2075C314.972 40.6571 317.638 44.446 316.95 49.5623C316.757 50.9862 316.371 52.4221 315.78 53.846C315.189 55.2698 314.537 56.6213 313.801 57.8883C312.051 60.9412 310.784 63.62 310.024 65.9489L308.323 71.0893C307.756 72.8028 307.309 74.2749 306.971 75.4816C306.633 76.7003 306.501 77.4726 306.573 77.8225L306.959 77.4123C308.214 76.4228 309.288 75.8677 310.205 75.735C311.569 75.5419 313.222 76.1452 315.165 77.5088C316.19 78.1845 316.588 79.355 316.359 81.0323C316.166 82.4682 315.563 84.1817 314.573 86.1847C313.572 88.1999 312.401 90.0461 311.05 91.7596L303.436 103.332L304.413 102.318C306.054 100.93 308.504 98.9513 311.762 96.4053C325.566 86.2089 338.212 80.3324 349.724 78.7517C357.362 77.7019 363.89 78.45 369.308 80.984V81.0323ZM274.476 109.087C274.343 110.041 274.524 111.187 275.019 112.526L278.253 124.545C278.518 125.908 278.977 126.789 279.664 127.163C280.34 127.537 280.955 127.344 281.511 126.56L283.538 124.002C286.494 120.321 289.306 116.086 291.984 111.271C292.708 110.004 293.312 108.46 293.782 106.638L294.808 101.582L294.856 101.22C294.989 100.267 294.88 99.5547 294.555 99.072C294.229 98.5893 293.782 98.3963 293.215 98.4687C292.527 98.5652 291.731 99.0841 290.826 100.025C289.004 101.92 287.496 103.344 286.301 104.333C285.106 105.31 283.852 106.071 282.548 106.602C280.883 107.301 279.085 107.772 277.154 108.038C276.358 108.146 275.743 108.17 275.296 108.122C274.838 108.182 274.572 108.508 274.488 109.111L274.476 109.087ZM289.076 131.302L289.342 129.335C289.523 128.02 289.619 126.874 289.644 125.872C289.668 124.871 289.547 124.509 289.294 124.774C288.775 125.317 288.292 125.969 287.858 126.729L283.2 133.86C282.464 135.127 282.054 136.129 281.957 136.841C281.873 137.444 281.945 138.192 282.15 139.097C283.224 143.514 284.189 146.711 285.034 148.702C285.3 149.257 285.541 149.511 285.77 149.475C285.999 149.438 286.253 148.413 286.518 146.386L289.076 131.302Z" fill="white"/>
<path d="M481.854 86.8605C487.212 88.586 491.363 91.8199 494.295 96.5621C497.227 101.304 498.18 107.495 497.143 115.121C496.141 122.506 493.136 129.347 488.141 135.646C483.145 141.945 477.1 147.134 470.005 151.2C462.909 155.267 455.766 157.801 448.586 158.778C442.541 159.611 437.328 158.947 432.911 156.799C428.507 154.651 426.637 151.14 427.3 146.253C427.855 142.198 429.834 138.747 433.237 135.875C436.652 133.016 440.345 131.302 444.339 130.759C448.333 130.216 451.953 130.916 455.211 132.871C458.469 134.826 460.81 137.987 462.234 142.343C462.692 143.924 463.549 144.624 464.804 144.455C465.371 144.382 466.022 144.117 466.759 143.658C472.08 139.894 476.569 135.417 480.249 130.24C483.917 125.064 486.126 119.73 486.874 114.252C488.141 104.961 486.101 98.541 480.768 95.0055C475.435 91.4699 468.834 90.2391 460.967 91.3131C453.666 92.3146 446.631 95.5847 439.838 101.135C433.044 106.686 425.683 115.555 417.768 127.755C417.068 128.792 416.006 130.421 414.582 132.666C413.158 134.91 411.867 136.575 410.721 137.673C409.562 138.771 408.356 139.399 407.101 139.568C405.049 139.845 403.626 139.399 402.841 138.216C402.045 137.034 401.779 135.55 402.021 133.764C402.479 130.433 404.313 126.584 407.535 122.216C410.757 117.86 415.547 112.032 421.907 104.719C428.398 97.2861 436.206 87.9706 445.328 76.7727C454.451 65.5869 460.025 58.745 462.04 56.2352L468.291 48.5366C468.955 47.7402 469.787 46.7507 470.789 45.5561C471.79 44.3615 472.539 43.36 473.045 42.5274C473.552 41.6948 473.854 40.9225 473.95 40.2106C474.107 39.016 473.842 37.942 473.13 36.9888C472.418 36.0355 471.609 35.6132 470.704 35.7459C469.341 35.939 467.712 37.1456 465.841 39.39C461.956 44.1323 457.769 48.1867 453.28 51.5412C448.791 54.9078 444.737 56.8385 441.081 57.3332C434.927 58.1779 431.994 54.2562 432.284 45.5561L432.574 42.1895C432.706 41.2362 432.996 40.7294 433.454 40.6691C433.792 40.6208 434.637 41.4414 435.976 43.1307C437.231 44.6029 438.655 45.2183 440.248 45.0011C441.841 44.7839 444.93 43.4565 449.515 41.019C454.101 38.5816 458.915 35.6132 463.983 32.1138C466.831 30.0866 469.28 28.9282 471.332 28.6507C473.262 28.3852 475.603 28.711 478.331 29.6281C481.058 30.5451 483.362 31.9208 485.233 33.767C487.103 35.6132 487.875 37.7369 487.562 40.114C487.151 43.0945 485.438 45.8457 482.421 48.3556C467.688 61.2428 454.318 74.9506 442.275 89.4669C441.479 90.396 441.032 91.2165 440.936 91.9285C440.779 93.1231 441.322 93.6299 442.577 93.461C443.144 93.3885 443.796 93.1231 444.532 92.6646C451.205 88.8273 457.841 86.4623 464.454 85.5573C470.716 84.7005 476.533 85.1349 481.89 86.8605H481.854ZM452.11 146.542C450.577 140.557 447.017 137.939 441.431 138.711C439.379 138.989 437.774 139.713 436.604 140.859C435.445 142.017 434.758 143.309 434.565 144.732C434.263 147.001 435.614 148.775 438.619 150.054C441.636 151.333 445.014 151.719 448.779 151.212C451.361 149.45 452.472 147.894 452.098 146.542H452.11Z" fill="white"/>
<path d="M581.609 11.4435C581.754 10.4058 582.128 9.62145 582.744 9.07845C583.359 8.53545 584.143 8.30618 585.121 8.36652L588.91 8.60785C589.296 8.65612 590.527 8.64405 592.59 8.55958C595.667 8.24585 597.151 8.54752 597.019 9.47665C596.946 9.99552 596.415 10.623 595.438 11.3711L595.1 11.7211C593.543 13.0484 592.711 14.4843 592.602 16.0289C591.106 35.6614 591.383 52.3738 593.435 66.1781C595.474 79.9824 600.12 91.9405 607.372 102.028C614.624 112.128 625.243 120.128 639.24 126.041C640.736 126.548 641.448 127.115 641.364 127.73C641.328 128.044 641.038 128.334 640.507 128.611C639.976 128.889 639.3 129.178 638.48 129.504C635.475 130.723 633.098 132.678 631.36 135.357C630.492 136.696 629.563 137.432 628.561 137.565C628.054 137.637 627.535 137.565 626.98 137.323C612.018 129.203 601.64 117.751 595.86 102.982C590.08 88.2119 587.365 69.774 587.727 47.6557C587.643 46.1474 587.498 45.3992 587.293 45.4234C587.088 45.4475 586.798 46.2077 586.4 47.6798C583.323 60.917 579.112 73.394 573.742 85.1108C568.372 96.8275 560.722 108.508 550.767 120.14C540.812 131.773 528.009 142.826 512.383 153.312C511.297 154.072 510.464 154.494 509.861 154.567C509.463 154.627 509.089 154.47 508.751 154.108C508.666 154.024 508.654 153.77 508.702 153.348C508.799 152.624 509.559 151.707 510.983 150.597C525.753 139.218 537.723 127.393 546.882 115.097C556.04 102.813 563.003 90.5649 567.745 78.3775C572.487 66.1902 576.167 52.9892 578.774 38.8108C579.088 37.2421 579.45 34.9012 579.872 31.8001C580.741 25.3806 581.296 18.7922 581.525 12.0469L581.609 11.4315V11.4435Z" fill="white"/>
<path d="M700.998 47.885C700.937 48.2953 700.696 48.9951 700.274 49.9725C695.097 61.3635 690.512 72.0546 686.505 82.0579C682.499 92.0612 680.231 99.0358 679.7 102.97C679.483 104.526 679.483 107.832 679.676 112.888C679.917 116.931 679.953 119.513 679.796 120.647C679.603 122.095 679.084 123.362 678.252 124.448C677.419 125.522 676.406 126.15 675.211 126.319C673.317 126.584 671.905 126.162 670.976 125.064C670.046 123.966 669.021 122.18 667.886 119.694C665.039 113.986 664.423 105.166 666.04 93.2438C666.825 87.4397 668.297 80.4289 670.445 72.1994C672.592 63.9699 675.006 55.7042 677.709 47.4144C678.36 45.4958 678.795 44.1202 679.012 43.2755C680.146 39.9692 681.172 36.7474 682.089 33.6222C683.006 30.4969 683.609 27.8422 683.899 25.6702C684.249 23.0759 684.333 21.1814 684.152 19.9868C683.971 18.7922 683.392 17.0908 682.415 14.8826C682.198 14.3034 682.113 13.8569 682.161 13.5432C682.222 13.1329 682.391 12.7467 682.68 12.4089C682.97 12.0589 683.32 11.8659 683.718 11.8055C684.321 11.7211 685.106 12.071 686.071 12.8554C688.146 14.9188 689.932 17.4407 691.429 20.4332C692.937 23.4379 693.48 26.4304 693.07 29.435C692.792 31.5105 692.165 33.7308 691.211 36.0958C690.246 38.4609 688.81 41.6586 686.892 45.6889L683.996 51.8791C681.486 57.4056 679.398 63.0046 677.745 68.6759C676.092 74.3473 674.946 79.5601 674.294 84.3265C673.522 90.0219 673.775 92.7852 675.078 92.6042C675.875 92.4956 677.021 91.0959 678.517 88.3929C680.014 85.7021 682.246 81.346 685.214 75.3488C689.679 66.2988 694.252 57.478 698.946 48.9107C699.489 47.8247 700.056 47.2334 700.66 47.1489C700.961 47.1127 701.07 47.342 700.998 47.8609V47.885ZM772.058 104.683C771.902 105.829 771.419 106.903 770.586 107.929C769.766 108.955 768.8 109.546 767.702 109.691C766.399 109.872 765.12 109.558 763.853 108.762C762.586 107.965 761.343 107.024 760.124 105.914C758.906 104.804 757.989 103.995 757.373 103.464C755.611 101.98 753.777 100.749 751.847 99.796L751.436 99.5426C750.688 99.2409 750.169 99.1082 749.88 99.1444C748.685 99.3133 747.816 100.291 747.273 102.089C743.931 112.309 736.16 118.258 723.985 119.923C718.096 120.732 713.137 120.056 709.118 117.92C705.1 115.772 703.435 112.116 704.147 106.927C704.967 100.918 708.563 96.4052 714.947 93.4006C721.33 90.396 727.267 88.5136 732.757 87.7534C734.857 87.4638 736.437 87.3069 737.523 87.2587L737.97 87.1983C739.864 86.9449 740.95 85.8227 741.216 83.8559C742.7 69.3155 743.967 57.8521 745.005 49.4657C745.198 47.3058 744.703 46.3043 743.496 46.4732C742.99 46.5456 742.229 46.7507 741.204 47.0886C740.492 47.2937 739.382 47.4868 737.885 47.6919C733.493 48.2953 729.885 47.9453 727.074 46.6542C724.262 45.3631 721.837 42.8773 719.785 39.1849C719.387 38.5333 719.23 37.8817 719.315 37.2663C719.411 36.5423 719.761 36.132 720.365 36.0596C720.666 36.0234 721.101 36.1924 721.692 36.5664C722.271 36.9405 722.657 37.218 722.826 37.399C724.069 38.3523 725.505 39.1125 727.146 39.7038C728.775 40.295 730.995 40.4036 733.795 40.0175C735.991 39.7158 739.237 38.8712 743.545 37.4594C745.5 36.7836 746.61 35.4684 746.875 33.4894C747.153 30.702 747.635 26.7803 748.335 21.7002L749.409 13.7724C750.012 9.31981 748.311 6.3514 744.293 4.85512C743.46 4.45692 743.074 4.05872 743.134 3.63639C743.219 3.02098 743.871 2.36938 745.089 1.69365C746.308 1.01791 748.263 0.499042 750.966 0.124974C753.862 -0.273228 756.36 0.281841 758.459 1.76605C760.559 3.26232 761.476 4.93959 761.222 6.79786C761.198 7.003 760.752 8.07693 759.907 10.0317C759.014 11.5763 758.326 13.0484 757.844 14.4361L757.615 15.0756C757.47 15.4014 757.373 15.7755 757.313 16.1858C757.144 17.4286 757.554 18.394 758.544 19.0697C762.164 21.2176 765.036 22.4484 767.147 22.7742C768.016 22.8587 769.199 22.9552 770.707 23.0517C772.215 23.1483 773.241 23.3655 773.772 23.7033C774.315 24.0412 774.629 24.6083 774.713 25.4047C774.822 25.996 774.834 26.6597 774.737 27.3837C774.423 29.6643 772.179 32.1138 768.004 34.7082C763.298 37.5921 758.857 40.0296 754.67 42.0206C752.788 42.8894 751.81 43.6375 751.726 44.2529C750.616 52.4462 749.952 60.1568 749.759 67.4089C749.554 74.661 749.433 78.7999 749.397 79.8135C749.361 82.975 749.337 84.9057 749.349 85.6176C749.409 87.3431 750.242 88.3929 751.859 88.7791C759.28 90.4081 764.963 93.292 768.909 97.4309C771.31 99.9528 772.36 102.354 772.046 104.635L772.058 104.683ZM732.769 109.365C735.581 107.41 737.68 103.887 739.056 98.8186L739.165 98.0463C739.382 96.4897 738.67 95.5726 737.041 95.283C733.481 94.7521 729.861 94.74 726.169 95.2468C722.175 95.7898 718.422 96.8879 714.922 98.541C711.411 100.194 709.456 102.523 709.046 105.528C708.6 108.846 709.987 111.042 713.221 112.128C716.455 113.214 719.822 113.516 723.309 113.033C726.796 112.55 729.958 111.332 732.769 109.377V109.365ZM757.506 22.4604C756.408 22.6052 755.636 23.5827 755.201 25.3685L754.356 29.4471L754.308 29.7608C754.2 30.5934 754.308 31.2329 754.634 31.7035C754.96 32.1741 755.479 32.3552 756.179 32.2586L757.566 31.7639C761.271 29.7367 763.201 28.1921 763.334 27.1665C763.443 26.3339 762.164 24.9945 759.473 23.1121C758.761 22.6053 758.097 22.3881 757.506 22.4725V22.4604Z" fill="white"/>
<path d="M789.881 92.5922C789.579 92.387 789.193 92.1216 788.71 91.7716C788.228 91.4338 787.999 91.1321 788.035 90.8908C788.095 90.4805 788.409 90.2271 788.988 90.1547C789.314 90.1064 790.038 90.1788 791.16 90.3478C793.634 90.6615 796.843 91.6027 800.777 93.1834C804.711 94.7642 808.114 96.7914 810.986 99.2892C813.857 101.787 815.1 104.526 814.69 107.507C814.388 109.751 813.604 111.477 812.337 112.707C811.07 113.938 809.731 114.65 808.331 114.843C806.255 115.133 804.626 113.926 803.456 111.235C799.643 102.813 795.118 96.5983 789.881 92.5922Z" fill="white"/>
<path d="M649.762 208.095L650.921 206.381C651.198 206.019 651.584 205.476 652.067 204.728C652.55 203.98 652.96 203.425 653.274 203.063C653.587 202.701 653.913 202.496 654.227 202.448C654.782 202.375 655.928 203.099 657.678 204.607C659.44 206.128 660.719 207.54 661.539 208.867C661.793 209.229 661.889 209.651 661.829 210.146C661.744 210.798 661.274 211.377 660.441 211.896C659.85 212.294 659.271 212.571 658.716 212.728C657.159 213.416 656.29 214.454 656.097 215.842L652.2 244.512C652.031 245.731 652.284 246.732 652.948 247.529C655.072 250.039 657.557 251.788 660.417 252.79C663.277 253.791 666.74 254.262 670.782 254.19C674.825 254.117 680.267 253.61 687.085 252.681C706.91 249.966 721.342 247.867 730.392 246.394L730.983 246.31C731.526 246.238 731.973 246.25 732.299 246.37C732.636 246.491 732.781 246.624 732.757 246.781C732.721 247.022 732.492 247.299 732.069 247.589C731.647 247.891 731.128 248.241 730.537 248.639C728.944 249.58 727.725 250.944 726.868 252.729C726.205 254.262 725.203 255.119 723.864 255.3L686.011 260.476C679.108 261.417 673.546 261.804 669.298 261.623C665.051 261.442 661.479 260.573 658.571 259.016C655.663 257.46 653.189 254.901 651.138 251.354C650.776 250.606 650.245 250.28 649.545 250.376C648.918 250.461 648.362 250.859 647.88 251.559C643.475 256.796 639.095 261.586 634.739 265.93C633.846 266.848 633.388 267.439 633.352 267.68L633.267 268.296L632.314 268.549C631.445 268.67 630.878 268.392 630.588 267.704L628.718 263.65C628.489 263.047 628.404 262.576 628.452 262.25C628.561 261.442 629.128 260.681 630.142 259.982C634.1 257.448 638.347 254.503 642.872 251.173C644.055 250.376 644.742 249.278 644.936 247.903L649.28 215.938C649.388 215.13 649.255 214.526 648.893 214.128C648.519 213.742 647.94 213.597 647.156 213.706L644.803 214.032C642.908 214.369 640.785 214.985 638.444 215.866C638.19 215.986 637.84 216.071 637.37 216.131C636.429 216.264 635.789 215.829 635.463 214.84L635.21 214.152C635.041 213.694 634.981 213.308 635.017 212.982C635.101 212.33 635.379 211.847 635.849 211.546C636.308 211.244 636.935 211.075 637.708 211.051C639.095 211.027 641.195 210.894 643.994 210.677L646.577 210.327C647.832 210.158 648.893 209.41 649.762 208.095ZM643.91 163.629C644.091 163.448 644.296 163.339 644.525 163.303C644.682 163.279 645.285 163.363 646.335 163.532C652.031 165.234 656.073 167.611 658.462 170.676C660.852 173.741 661.841 176.782 661.431 179.786C661.226 181.331 660.695 182.646 659.862 183.708C659.029 184.782 658.052 185.397 656.966 185.542C656.411 185.614 655.844 185.578 655.253 185.421C654.299 185.071 653.793 184.299 653.72 183.117C653.262 180.221 652.212 177.216 650.559 174.091C648.906 170.965 647.011 168.226 644.863 165.885C643.874 164.667 643.548 163.906 643.898 163.617L643.91 163.629ZM683.115 227.474C683.658 227.401 684.14 227.534 684.563 227.872L686.879 229.465C687.434 229.863 688.231 230.237 689.269 230.575C690.946 231.227 691.754 231.83 691.67 232.397C691.61 232.807 690.982 233.169 689.788 233.495L688.834 233.749C687.64 234.074 686.602 234.617 685.733 235.365C682.511 238.117 678.698 240.904 674.282 243.704C669.865 246.503 665.449 248.88 661.02 250.847C660.61 251.064 660.091 251.209 659.464 251.306C658.836 251.39 658.511 251.281 658.474 250.968L658.511 250.726C658.571 250.232 659.247 249.544 660.526 248.651L663.844 246.286C667.09 243.921 670.288 241.194 673.437 238.093C676.586 234.991 679.133 231.987 681.063 229.091C681.811 228.113 682.499 227.57 683.127 227.486L683.115 227.474ZM721.209 198.429L722.488 196.704C722.754 196.426 723.152 195.931 723.671 195.22C724.19 194.508 724.624 193.989 724.974 193.663C725.324 193.337 725.662 193.156 725.976 193.108C726.603 193.023 727.737 193.627 729.366 194.918C730.995 196.209 732.154 197.452 732.842 198.634C733.107 198.912 733.204 199.346 733.131 199.913C733.071 200.396 732.805 200.879 732.359 201.337C731.671 201.832 730.899 202.134 730.042 202.254L716.057 204.173C715.272 204.282 714.633 204.583 714.15 205.09C713.655 205.597 713.354 206.261 713.245 207.069L711.966 216.469C711.858 217.277 711.978 217.881 712.352 218.267C712.714 218.653 713.306 218.798 714.078 218.689L719.484 217.953C720.739 217.784 721.788 217.121 722.633 215.962L724.057 213.971C724.431 213.525 724.829 212.994 725.252 212.366C725.674 211.739 726.12 211.208 726.567 210.749C727.013 210.291 727.399 210.037 727.713 210.001C728.256 209.929 729.463 210.605 731.309 212.028C733.155 213.452 734.495 214.743 735.339 215.902C735.653 216.421 735.786 216.879 735.725 217.29C735.665 217.772 735.363 218.255 734.832 218.725C734.229 219.208 733.493 219.51 732.636 219.618L679.036 226.955C674.246 227.691 669.009 228.849 663.337 230.418L662.637 230.515C661.539 230.659 660.827 230.249 660.502 229.248L660.164 228.331C659.995 227.872 659.934 227.45 659.995 227.039C660.055 226.557 660.333 226.11 660.803 225.724C661.274 225.338 661.865 225.145 662.553 225.121C665.027 225.024 668.767 224.711 673.751 224.192L678.216 223.576C679 223.468 679.639 223.166 680.122 222.659C680.617 222.152 680.918 221.489 681.027 220.68L682.306 211.28C682.415 210.472 682.282 209.869 681.92 209.482C681.546 209.096 680.967 208.951 680.194 209.06L677.492 209.434C675.211 209.832 672.882 210.508 670.529 211.461C670.276 211.582 669.962 211.654 669.576 211.715C668.635 211.847 667.959 211.413 667.561 210.436L667.319 209.627C667.15 209.169 667.102 208.698 667.162 208.215C667.307 207.154 668.116 206.611 669.576 206.562C671.434 206.466 674.161 206.261 677.733 205.923L680.677 205.524C682.318 205.295 683.259 204.33 683.489 202.628L683.959 196.583L683.995 196.342C684.189 194.882 684.876 194.061 686.059 193.904C686.216 193.88 686.59 193.904 687.205 193.989C691.465 194.918 693.528 195.883 693.395 196.849C693.347 197.174 693.07 197.536 692.563 197.922C691.525 198.779 690.922 199.829 690.753 201.048L690.668 201.651C690.56 202.46 690.693 203.063 691.055 203.449C691.429 203.835 691.996 203.98 692.78 203.871L704.654 202.242C706.295 202.013 707.236 201.048 707.465 199.346L707.936 193.301L707.972 193.06C708.165 191.6 708.853 190.779 710.035 190.622C710.192 190.598 710.566 190.622 711.182 190.707C715.272 191.744 717.251 192.71 717.131 193.603C717.082 193.928 716.805 194.29 716.298 194.677C715.26 195.533 714.657 196.583 714.488 197.802L714.404 198.405C714.295 199.214 714.428 199.817 714.79 200.203C715.164 200.589 715.743 200.734 716.515 200.625L718.048 200.42C719.303 200.251 720.352 199.588 721.197 198.429H721.209ZM694.011 156.654L694.699 155.846C694.964 155.568 695.29 155.17 695.676 154.639C696.05 154.108 696.376 153.722 696.641 153.493C696.907 153.264 697.196 153.119 697.51 153.071C698.053 152.998 698.994 153.469 700.322 154.482C701.637 155.496 702.663 156.522 703.363 157.535C703.616 157.897 703.712 158.32 703.652 158.814C703.58 159.381 703.145 159.961 702.373 160.54L701.866 160.854C701.118 161.276 700.539 161.71 700.129 162.169C699.718 162.627 699.465 163.219 699.368 163.943L699.067 166.139L698.56 172.438C698.463 173.174 698.319 173.765 698.138 174.236C697.957 174.694 697.643 175.165 697.196 175.623C696.424 176.202 695.543 176.745 694.554 177.24C693.564 177.735 692.671 178.037 691.887 178.145C691.26 178.23 691.03 177.626 691.211 176.323C691.284 175.756 691.139 175.322 690.753 175.008C690.367 174.706 689.787 174.598 689.003 174.706L679.483 176.009C678.698 176.118 678.059 176.42 677.564 176.926C677.069 177.433 676.768 178.097 676.659 178.905L675.682 186.109C675.597 186.761 675.706 187.159 676.031 187.316C676.357 187.473 677.19 187.461 678.517 187.28L685.685 186.302C689.679 185.759 692.032 185.397 692.756 185.216C693.456 185.12 694.047 184.794 694.506 184.263C695.073 183.467 695.821 181.97 696.738 179.762C697.402 178.23 697.932 177.445 698.331 177.385C698.801 177.325 698.958 178.097 698.825 179.714L698.681 181.644C698.681 182.284 698.789 182.791 699.055 183.153C699.308 183.515 699.718 183.901 700.285 184.299C700.853 184.625 701.094 185.192 700.973 186.001C700.829 187.062 700.286 187.907 699.356 188.559C698.427 189.21 696.822 189.802 694.554 190.357C692.285 190.912 689.003 191.479 684.695 192.07L676.237 193.229C673.968 193.542 672.303 193.566 671.265 193.313C670.227 193.06 669.564 192.529 669.286 191.732C669.009 190.936 668.985 189.717 669.202 188.088L670.432 179.062C670.794 176.383 671.036 174.356 671.144 172.981L671.181 172.739C671.374 171.352 671.929 170.603 672.87 170.471C673.268 170.422 673.678 170.471 674.113 170.664L677.612 172.1C678.409 172.474 679.398 172.57 680.569 172.413L689.498 171.195C690.282 171.086 690.922 170.784 691.417 170.278C691.911 169.771 692.213 169.107 692.322 168.299L692.852 164.389C692.961 163.581 692.828 162.977 692.466 162.591C692.092 162.205 691.513 162.06 690.729 162.169L686.023 162.808C682.077 163.508 678.421 164.413 675.042 165.511C674.873 165.62 674.595 165.692 674.209 165.753C673.184 165.897 672.52 165.427 672.206 164.353L671.856 163.569C671.687 163.11 671.639 162.639 671.699 162.157C671.76 161.674 672.013 161.264 672.448 160.914C672.882 160.576 673.437 160.395 674.137 160.383C676.611 160.286 680.424 159.961 685.576 159.418L690.861 158.694C692.116 158.525 693.166 157.861 694.011 156.703V156.654ZM705.909 206.212C705.535 205.826 704.955 205.681 704.183 205.79L692.309 207.419C691.525 207.528 690.886 207.829 690.403 208.336C689.908 208.843 689.606 209.507 689.498 210.315L688.219 219.715C688.11 220.523 688.243 221.127 688.605 221.525C688.967 221.911 689.546 222.056 690.33 221.947L702.204 220.318C702.988 220.21 703.628 219.908 704.111 219.401C704.605 218.894 704.907 218.231 705.016 217.422L706.295 208.022C706.403 207.214 706.271 206.611 705.909 206.224V206.212ZM700.539 228.331C700.611 227.763 701.13 227.414 702.071 227.281C702.313 227.245 702.723 227.281 703.326 227.353C711.99 228.077 718.132 229.598 721.74 231.902C725.348 234.207 726.977 236.657 726.627 239.263C726.458 240.482 725.951 241.507 725.107 242.34C724.262 243.173 723.248 243.667 722.078 243.836C720.739 244.017 719.604 243.619 718.663 242.63C717.203 240.349 715.067 238.117 712.256 235.908C709.444 233.7 706.041 231.709 702.047 229.935C700.961 229.441 700.454 228.922 700.539 228.343V228.331ZM730.561 151.647L731.261 150.718C731.526 150.44 731.852 150.042 732.238 149.511C732.612 148.98 732.938 148.594 733.204 148.365C733.469 148.135 733.759 147.99 734.072 147.942C734.615 147.87 735.556 148.365 736.872 149.414C738.187 150.476 739.201 151.55 739.888 152.648C740.154 152.926 740.263 153.312 740.19 153.807C740.106 154.458 739.635 155.037 738.802 155.556L738.428 155.725C737.668 156.232 737.101 156.703 736.739 157.149C736.365 157.596 736.136 158.187 736.039 158.923L735.737 161.119L735.231 167.418C735.134 168.154 734.989 168.745 734.82 169.216C734.639 169.674 734.326 170.145 733.879 170.603C733.107 171.183 732.226 171.726 731.237 172.22C730.247 172.715 729.318 173.017 728.461 173.137C727.834 173.222 727.605 172.619 727.786 171.315C727.858 170.748 727.713 170.314 727.327 170C726.941 169.698 726.362 169.59 725.577 169.698L715.936 171.014C715.152 171.122 714.512 171.424 714.017 171.931C713.523 172.438 713.221 173.101 713.112 173.91L712.135 181.114C712.051 181.765 712.159 182.175 712.485 182.32C712.811 182.477 713.643 182.465 714.971 182.284L722.85 181.21C727.158 180.619 729.632 180.245 730.271 180.076C731.056 179.967 731.635 179.653 732.021 179.123C732.492 178.495 733.336 176.782 734.567 173.982C735.158 172.462 735.689 171.677 736.16 171.605C736.703 171.533 736.872 172.341 736.63 174.055L736.425 176.359C736.268 177.506 736.763 178.435 737.897 179.159C738.465 179.485 738.694 180.052 738.585 180.86C738.44 181.922 737.885 182.779 736.908 183.43C735.931 184.082 734.277 184.685 731.937 185.252C729.596 185.808 726.181 186.399 721.716 187.014L712.666 188.257C709.299 188.716 707.164 188.595 706.259 187.871C705.354 187.159 705.076 185.578 705.402 183.141L706.633 174.115C706.995 171.436 707.236 169.409 707.345 168.033L707.381 167.792C707.586 166.332 708.153 165.535 709.094 165.403C709.324 165.366 709.734 165.475 710.325 165.716L713.933 167.14C714.729 167.514 715.719 167.611 716.889 167.454L726.06 166.199C726.844 166.091 727.484 165.789 727.967 165.282C728.461 164.775 728.763 164.112 728.872 163.303L729.402 159.393C729.511 158.585 729.378 157.982 729.016 157.596C728.642 157.209 728.063 157.065 727.291 157.173L722.476 157.837C719.411 158.332 715.586 159.261 711.025 160.6C710.771 160.721 710.494 160.793 710.18 160.841C709.167 160.986 708.443 160.564 708.044 159.574L707.707 158.657C707.538 158.199 707.489 157.728 707.55 157.246C707.61 156.763 707.863 156.353 708.298 156.003C708.732 155.665 709.287 155.484 709.987 155.472C712.618 155.351 716.588 155.013 721.897 154.446L727.424 153.686C728.679 153.517 729.728 152.853 730.573 151.695L730.561 151.647Z" fill="white"/>
<path d="M848.573 195.014C848.429 196.076 848.091 197.162 847.56 198.272C844.121 206.562 840.344 213.452 836.217 218.919C832.09 224.397 828.072 228.451 824.187 231.106C820.289 233.761 816.729 235.305 813.52 235.74C808.898 236.367 805.664 235.378 803.83 232.759C801.996 230.141 801.356 226.75 801.923 222.599C802.201 220.572 803.227 215.552 805 207.564C805.978 203.196 806.557 200.372 806.738 199.069C807.221 195.485 806.955 192.673 805.93 190.622C804.904 188.571 802.816 187.75 799.679 188.185C796.626 188.607 793.018 190.139 788.843 192.782C784.68 195.425 780.71 198.767 776.921 202.797C773.422 206.466 770.514 210.436 768.209 214.707C765.904 218.979 764.36 222.225 763.6 224.433C762.839 226.653 761.717 230.104 760.233 234.774C759.111 238.515 758.23 241.061 757.59 242.376C756.951 243.704 756.082 244.44 754.984 244.584C753.174 244.826 751.907 244.186 751.147 242.654C750.387 241.121 750.181 239.179 750.495 236.813C750.761 234.859 751.34 232.868 752.233 230.828C755.817 222.599 760.149 214.575 765.253 206.767C770.345 198.972 777.295 189.078 786.068 177.095C792.113 168.842 796.144 163.267 798.147 160.359C800.717 156.739 802.141 153.903 802.418 151.876C802.599 150.573 802.322 149.499 801.586 148.642C801.067 147.918 800.572 147.327 800.101 146.868C799.619 146.41 799.402 146.108 799.414 145.939C799.474 145.456 800.065 145.131 801.163 144.986C802.575 144.793 804.035 145.07 805.543 145.818C807.052 146.567 808.246 147.725 809.115 149.282C809.984 150.838 810.286 152.6 810.02 154.543C809.694 156.908 808.801 159.08 807.341 161.071C805.881 163.062 803.902 165.27 801.429 167.683L799.148 170.036C795.118 174.175 791.618 178.037 788.638 181.596C785.658 185.156 782.774 188.969 779.986 193.023C779.769 194.085 779.962 194.58 780.59 194.496C780.903 194.447 781.277 194.242 781.712 193.868C788.529 188.39 794.876 185.24 800.753 184.432C805.145 183.829 808.633 184.734 811.227 187.135C813.821 189.536 814.738 193.578 813.966 199.274C813.58 202.122 812.796 205.621 811.613 209.772C811.468 210.267 811.154 211.498 810.66 213.44C810.165 215.383 809.779 217.374 809.501 219.401C809.043 222.816 809.32 225.254 810.358 226.714C811.396 228.174 813.363 228.705 816.259 228.306C820.337 227.751 824.898 225.048 829.93 220.21C834.974 215.371 840.211 207.902 845.665 197.814C845.87 197.464 846.148 196.957 846.51 196.257C846.872 195.569 847.198 195.051 847.475 194.689C847.753 194.339 848.006 194.134 848.248 194.109C848.561 194.061 848.67 194.375 848.585 195.026L848.573 195.014Z" fill="white"/>
<path d="M934.006 135.489C936.117 136.684 937.022 138.325 936.733 140.449C936.612 141.342 936.262 142.054 935.695 142.56C935.128 143.079 934.452 143.393 933.668 143.502C932.015 143.731 929.867 143.743 927.2 143.55C926.657 143.55 925.631 143.526 924.087 143.49C922.554 143.465 921.275 143.514 920.262 143.658C917.909 143.984 915.616 144.588 913.384 145.493C911.139 146.398 909.522 147.158 908.521 147.773C905.057 150.006 901.691 153.975 898.421 159.695C895.139 165.415 892.375 171.617 890.119 178.314C887.862 185.011 886.402 190.803 885.739 195.678C884.629 203.895 885.196 209.458 887.452 212.39C889.709 215.311 893.582 216.409 899.06 215.648L902.379 214.949C904.768 214.309 906.602 213.887 907.857 213.718C913.504 212.946 916.123 213.983 915.737 216.831C915.447 218.943 913.673 220.572 910.403 221.694C907.133 222.816 903.899 223.6 900.677 224.047C894.173 224.94 889.214 224.542 885.787 222.852C882.36 221.163 880.164 218.195 879.211 213.935C878.257 209.675 878.269 203.932 879.247 196.692C880.357 188.559 882.782 180.583 886.535 172.763C890.288 164.944 894.728 158.006 899.857 151.96C902.644 148.944 903.875 147.532 903.549 147.749L903.067 147.93C900.81 148.714 897.54 150.223 893.28 152.443C889.021 154.663 883.567 157.583 876.918 161.203L871.56 164.087C870.885 164.498 869.412 165.415 867.144 166.851C865.539 167.864 864.284 168.637 863.367 169.167C862.45 169.698 861.521 170.024 860.58 170.145C858.625 170.41 856.646 169.771 854.667 168.202C852.688 166.633 851.24 165.004 850.311 163.291C849.997 162.784 849.864 162.314 849.925 161.903C849.973 161.578 850.13 161.276 850.395 160.998C850.661 160.721 850.95 160.564 851.264 160.516C851.735 160.455 852.217 160.552 852.724 160.793C852.869 160.854 853.484 161.155 854.57 161.674C855.656 162.205 857.056 162.35 858.782 162.121C859.168 162.072 859.856 161.891 860.809 161.602C861.05 161.493 863.56 160.347 868.314 158.187C877.509 153.891 885.92 150.126 893.558 146.892C901.184 143.658 908.159 141.209 914.458 139.544C915.652 139.218 916.835 138.759 917.993 138.168C919.151 137.577 919.9 137.167 920.237 136.961C922.747 135.417 924.955 134.524 926.838 134.259C929.505 133.897 931.882 134.307 933.994 135.489H934.006ZM942.404 137.818C941.608 137.408 941.101 136.624 940.884 135.453C940.425 133.197 939.737 131.326 938.82 129.806C937.915 128.298 936.6 127.055 934.886 126.089C934.669 125.957 934.331 125.764 933.873 125.51C933.402 125.257 933.076 125.015 932.871 124.81C932.666 124.593 932.582 124.376 932.618 124.122C932.69 123.555 933.125 123.217 933.909 123.109C934.766 122.988 936.564 123.23 939.291 123.809C942.018 124.4 944.455 125.462 946.591 127.006C948.727 128.551 949.608 130.711 949.234 133.474C949.041 134.862 948.51 135.972 947.629 136.805C946.748 137.649 945.795 138.132 944.781 138.277C943.997 138.385 943.212 138.241 942.416 137.818H942.404ZM956.703 128.068C956.027 127.646 955.533 126.934 955.207 125.932C954.555 123.941 953.783 122.397 952.902 121.275C952.021 120.165 950.718 119.115 949.004 118.162C948.582 117.896 948.136 117.667 947.665 117.45C947.194 117.232 946.796 117.003 946.483 116.774C946.169 116.545 946.036 116.255 946.072 115.929C946.145 115.447 946.639 115.133 947.581 115C949.306 114.759 951.454 114.928 954.036 115.495C956.607 116.062 958.815 117.076 960.661 118.536C962.495 119.996 963.255 121.914 962.942 124.267C962.748 125.655 962.254 126.681 961.433 127.344C960.613 128.02 959.732 128.418 958.791 128.539C958.091 128.635 957.391 128.466 956.727 128.044L956.703 128.068Z" fill="white"/>
<path d="M1005.56 163.713C1009.24 164.884 1012.1 167.092 1014.12 170.326C1016.14 173.56 1016.8 177.783 1016.08 182.984C1015.4 188.028 1013.34 192.698 1009.91 197.005C1006.48 201.313 1002.32 204.849 997.44 207.636C992.565 210.424 987.654 212.149 982.719 212.825C978.568 213.392 974.972 212.945 971.943 211.485C968.915 210.025 967.623 207.624 968.07 204.294C968.444 201.53 969.808 199.165 972.148 197.21C974.489 195.256 977.035 194.085 979.775 193.711C982.514 193.337 985.012 193.82 987.256 195.147C989.5 196.474 991.105 198.634 992.083 201.615C992.396 202.689 992.988 203.171 993.856 203.051C994.243 203.003 994.701 202.809 995.196 202.508C998.852 199.938 1001.94 196.873 1004.46 193.337C1006.97 189.802 1008.49 186.157 1009 182.417C1009.86 176.07 1008.46 171.701 1004.79 169.288C1001.12 166.875 996.571 166.042 991.166 166.778C986.146 167.466 981.307 169.698 976.637 173.499C971.967 177.288 966.911 183.358 961.481 191.684C960.999 192.384 960.275 193.506 959.297 195.038C958.32 196.571 957.439 197.705 956.643 198.453C955.846 199.201 955.026 199.636 954.157 199.757C952.745 199.95 951.768 199.648 951.225 198.839C950.682 198.043 950.489 197.029 950.658 195.799C950.971 193.518 952.226 190.9 954.434 187.919C956.643 184.939 959.937 180.957 964.305 175.973C968.758 170.893 974.127 164.534 980.39 156.884C986.653 149.245 990.478 144.563 991.865 142.862L996.161 137.601C996.62 137.058 997.187 136.382 997.875 135.574C998.562 134.765 999.081 134.077 999.419 133.51C999.769 132.943 999.974 132.412 1000.03 131.93C1000.14 131.121 999.95 130.385 999.467 129.733C998.985 129.082 998.418 128.804 997.802 128.889C996.861 129.022 995.751 129.854 994.46 131.387C991.793 134.633 988.909 137.396 985.832 139.688C982.755 141.993 979.956 143.308 977.446 143.646C973.21 144.226 971.195 141.547 971.388 135.61L971.581 133.305C971.666 132.654 971.871 132.304 972.185 132.267C972.426 132.231 972.993 132.798 973.922 133.945C974.779 134.946 975.768 135.369 976.867 135.224C977.965 135.079 980.088 134.162 983.238 132.497C986.387 130.832 989.693 128.792 993.181 126.403C995.136 125.015 996.825 124.231 998.237 124.038C999.564 123.857 1001.17 124.074 1003.05 124.69C1004.93 125.317 1006.51 126.246 1007.81 127.513C1009.1 128.768 1009.63 130.216 1009.41 131.845C1009.13 133.884 1007.95 135.755 1005.87 137.48C995.751 146.289 986.568 155.653 978.29 165.559C977.747 166.187 977.434 166.754 977.373 167.237C977.265 168.045 977.639 168.395 978.496 168.275C978.882 168.226 979.34 168.045 979.835 167.732C984.42 165.113 988.981 163.484 993.531 162.869C997.838 162.277 1001.83 162.567 1005.52 163.737L1005.56 163.713ZM985.144 204.475C984.082 200.384 981.633 198.61 977.796 199.129C976.384 199.322 975.286 199.817 974.477 200.601C973.681 201.386 973.21 202.266 973.078 203.244C972.872 204.788 973.802 205.995 975.877 206.876C977.953 207.745 980.281 208.01 982.864 207.66C984.638 206.454 985.398 205.392 985.144 204.475Z" fill="white"/>
<path d="M1040.17 204.764C1037.88 203.678 1036.19 202.013 1035.1 199.769C1034.01 197.524 1033.66 194.942 1034.06 192.01C1034.45 189.162 1035.52 186.423 1037.27 183.78C1039.02 181.15 1041.24 178.954 1043.92 177.18C1046.59 175.418 1049.35 174.344 1052.2 173.946C1055.05 173.56 1057.59 173.91 1059.84 174.996C1062.08 176.082 1063.75 177.747 1064.84 180.003C1065.93 182.248 1066.29 184.794 1065.91 187.642C1065.51 190.574 1064.43 193.349 1062.67 195.992C1060.91 198.622 1058.73 200.818 1056.08 202.58C1053.45 204.342 1050.71 205.416 1047.87 205.802C1045.02 206.188 1042.45 205.838 1040.17 204.764ZM1057.94 197.729C1060.8 194.87 1062.48 191.636 1062.97 188.064C1063.45 184.565 1062.6 181.729 1060.42 179.557C1058.23 177.385 1055.36 176.54 1051.78 177.023C1048.19 177.518 1044.97 179.195 1042.11 182.055C1039.25 184.927 1037.57 188.112 1037.1 191.6C1036.62 195.183 1037.47 198.055 1039.64 200.227C1041.81 202.399 1044.69 203.244 1048.28 202.761C1051.85 202.266 1055.07 200.589 1057.94 197.729Z" fill="white"/>
</svg>
