<svg width="360" height="54" viewBox="0 0 360 54" fill="none" xmlns="http://www.w3.org/2000/svg">
<path d="M6.95064 32.3382C5.87378 32.5993 4.96008 32.6972 4.17691 32.5993C3.39374 32.5014 2.67583 32.2077 1.99056 31.653C1.33792 31.0982 0.652642 30.315 0 29.2382C0.195793 29.0098 0.293689 28.9119 0.489481 28.6834C1.17476 28.9771 1.8274 29.2056 2.41477 29.4013C3.00215 29.5971 3.58953 29.7277 4.24217 29.7603C4.89481 29.7603 5.64535 29.695 6.52642 29.4666C7.14643 29.3035 7.76644 29.1077 8.41908 28.8466C9.07172 28.5855 9.6591 28.3245 10.2465 28.0308C10.8012 27.7371 11.2907 27.5087 11.6823 27.3455C13.1181 26.5624 14.195 25.9097 14.9455 25.3876C15.696 24.8329 16.2508 24.4413 16.6424 24.1476C17.0013 23.8539 17.3276 23.6581 17.5561 23.6255C18.0129 23.5276 18.4698 23.5602 18.894 23.756C19.3182 23.9518 19.6119 24.2781 19.7098 24.7676C19.8077 25.1592 19.7098 25.4855 19.514 25.8118C19.3182 26.1381 19.0571 26.4318 18.7961 26.6929C18.274 27.1497 17.5887 27.6392 16.675 28.194C15.7939 28.7487 14.7823 29.3034 13.7055 29.8256C12.596 30.3803 11.4865 30.8698 10.3117 31.294C9.13699 31.7509 8.0275 32.1098 6.918 32.3709L6.95064 32.3382ZM7.60328 49.7311C7.04853 49.8617 6.59168 49.7311 6.2001 49.3722C5.80851 49.0132 5.54746 48.5564 5.41693 48.0669C5.31903 47.6753 5.2864 47.2837 5.31903 46.9248C5.35166 46.5658 5.48219 46.1416 5.71062 45.6521C6.33063 44.3468 6.918 42.8784 7.53801 41.2794C8.12539 39.6805 8.6475 37.951 9.10435 36.0909C9.5612 34.2309 9.82226 32.3056 9.95279 30.2824C9.98542 29.5319 10.0181 28.814 10.0181 28.1287C10.0181 27.4434 10.0181 26.7581 9.95279 26.1381C9.92016 25.5181 9.82226 24.9634 9.72436 24.5065C9.6591 24.1149 9.52857 23.7886 9.30015 23.5928C9.10435 23.397 8.77803 23.2665 8.38645 23.136C8.0275 23.0381 7.66854 22.9402 7.30959 22.9076C6.95064 22.8749 6.65695 22.8423 6.39589 22.8423C6.33063 22.6139 6.29799 22.4833 6.26536 22.2549C6.59168 22.0265 6.98327 21.7654 7.50538 21.4717C8.0275 21.1781 8.51698 21.0149 9.00646 20.8844C9.69173 20.7212 10.3444 20.6559 10.997 20.6559C11.6497 20.6559 12.1718 20.7538 12.6286 20.9496C12.8897 21.0149 13.0528 21.1781 13.1507 21.4391C13.2486 21.7002 13.3139 22.0591 13.3139 22.5812C13.3139 23.1034 13.3139 23.7886 13.216 24.6371C13.1507 25.5181 13.0528 26.6602 12.9549 28.0308C12.9223 28.6508 12.8244 29.5319 12.7265 30.6087C12.6286 31.7182 12.4655 32.9256 12.2697 34.2962C12.0739 35.6667 11.8455 37.0699 11.617 38.571C11.356 40.072 11.0623 41.5405 10.7033 43.0089C10.3444 44.4774 9.92016 45.8479 9.46331 47.1206C9.23488 47.8385 8.97383 48.3932 8.71277 48.8501C8.45171 49.3069 8.06013 49.6006 7.60328 49.7311ZM23.1362 51.8849C21.0477 52.3743 19.3182 52.3091 17.9803 51.6564C16.6097 51.0364 15.7939 50.0575 15.4676 48.7848C15.2392 47.8059 15.3371 46.7943 15.8266 45.7827C16.316 44.7711 17.1318 43.89 18.274 43.0742C19.4161 42.2584 20.9498 41.6384 22.7772 41.2142C24.9962 40.6921 27.0194 40.5615 28.7815 40.7899C30.5436 41.0184 32.0774 41.41 33.2521 41.8015C34.4595 42.1931 35.5364 42.65 36.2869 43.2047C37.0701 43.7595 37.5269 44.3795 37.6574 45.0648C37.788 45.6521 37.7227 46.109 37.4943 46.4679C37.2659 46.7943 36.9722 47.0227 36.5806 47.0879C36.2543 47.1532 35.9279 47.1206 35.6342 46.99C35.3406 46.8595 35.0469 46.6964 34.6879 46.4353C34.329 46.2069 33.9047 45.9458 33.4153 45.6848C32.4363 45.13 31.3594 44.6079 30.1521 44.1837C28.9447 43.7595 27.6394 43.4658 26.1709 43.3679C24.7025 43.27 23.1035 43.4005 21.3414 43.8247C19.6772 44.2163 18.5024 44.8037 17.8171 45.5869C17.1319 46.37 16.8708 47.0879 17.034 47.708C17.1971 48.3606 17.6213 48.8501 18.3719 49.1111C19.0898 49.4048 20.134 49.3722 21.5046 49.0459C22.5488 48.7848 23.3972 48.4585 23.9846 48.0016C24.572 47.5448 24.9636 46.99 25.1267 46.37C25.2899 45.75 25.2899 45.0648 25.1267 44.3142C24.9636 43.5963 24.8004 42.7805 24.5067 41.8994C24.2456 41.0184 23.9846 40.1699 23.7235 39.2889C23.4625 38.4078 23.2667 37.6246 23.1035 36.8741C22.8425 35.6993 22.7446 34.6877 22.8425 33.8067C22.9404 32.9256 23.2341 32.1098 23.6909 31.3266C24.2456 30.4129 24.8983 29.6298 25.6815 29.0424C26.4646 28.455 27.1499 27.9003 27.7046 27.4434C27.9004 27.2476 27.9657 27.0518 27.8678 26.856C27.7699 26.6603 27.5741 26.4971 27.2478 26.3339C26.6931 26.0402 26.0078 25.9097 25.2246 25.8771C24.4414 25.8771 23.593 25.9097 22.6793 26.0402C22.614 25.7139 22.5814 25.5508 22.4835 25.2244C23.4951 24.735 24.5393 24.376 25.6162 24.1802C26.6931 23.9844 27.6394 23.9518 28.4878 24.0171C29.891 24.1476 31.0331 24.5065 31.9142 25.1265C32.7953 25.7466 33.35 26.5297 33.5458 27.4761C33.6437 27.9982 33.6437 28.4876 33.4805 28.8792C33.3174 29.2708 32.991 29.5319 32.4363 29.6298C32.0121 29.7277 31.5879 29.7277 31.1636 29.6624C30.7394 29.5971 30.2826 29.5319 29.7931 29.4666C29.3036 29.4013 28.7162 29.4666 28.0636 29.6298C27.4436 29.7929 26.8236 30.0866 26.2688 30.4456C25.7141 30.8045 25.2899 31.2614 25.0614 31.7509C24.833 32.2403 24.7025 32.7951 24.7678 33.4151C24.8657 34.0351 24.9962 34.7204 25.2246 35.4383C25.3878 35.8951 25.6162 36.5151 25.9425 37.2983C26.2688 38.0815 26.5952 38.8973 26.9541 39.811C27.3131 40.7247 27.6394 41.6384 27.9657 42.5521C28.292 43.4658 28.5531 44.3142 28.7162 45.0648C29.0752 46.6964 28.7489 48.0995 27.7373 49.2417C26.7257 50.4164 25.1593 51.2322 23.0383 51.7217L23.1362 51.8849Z" fill="white"/>
<path d="M71.8233 41.7693C70.0286 42.063 68.5927 41.8346 67.4833 41.084C66.3738 40.3335 65.6559 39.1587 65.3622 37.4945C65.1337 36.2545 65.0032 35.0797 64.9706 33.905C64.9379 32.7628 64.8074 31.5555 64.6116 30.3481C64.4811 29.5323 64.1548 28.847 63.6653 28.3249C63.1758 27.8028 62.36 27.6396 61.2505 27.8354C60.1084 28.0312 59.0642 28.5533 58.1505 29.4344C57.2368 30.2828 56.4536 31.327 55.801 32.5344C55.1483 33.7418 54.6915 34.9818 54.3651 36.2218C54.0388 37.4292 53.7451 38.6693 53.582 39.8114C53.4188 40.9861 53.2557 41.9977 53.0925 42.8788C52.9946 43.4335 52.8314 43.923 52.5704 44.3146C52.3093 44.7388 51.8851 44.9999 51.3304 45.0978C50.9388 45.163 50.5798 45.0978 50.2535 44.9346C49.9272 44.7715 49.6335 44.5104 49.4051 44.1514C49.1766 43.7925 49.0135 43.4335 48.9482 43.0093C48.8503 42.4219 48.883 41.704 49.144 40.8556C49.3724 40.0072 49.6988 39.0282 50.123 37.9513C50.5472 36.8419 51.004 35.6345 51.4935 34.3292C51.8851 33.2197 52.3746 31.947 52.9293 30.5112C53.4841 29.0754 54.0715 27.5743 54.6915 26.0406C55.3115 24.5069 55.8989 23.0385 56.4536 21.6027C57.0084 20.1669 57.4978 18.9268 57.922 17.85C58.3463 16.7731 58.64 15.9573 58.8357 15.4352C58.9989 14.9784 59.0642 14.6194 58.9663 14.3583C58.8684 14.0973 58.6726 13.8689 58.4115 13.7383C58.0852 13.5425 57.6284 13.3794 57.1062 13.2489C56.5841 13.1183 56.1273 13.0531 55.7031 12.9878C55.7031 12.7267 55.7031 12.5636 55.7683 12.3025C56.2252 12.1067 56.7473 11.9436 57.3673 11.813C57.9873 11.6825 58.5094 11.6172 58.9336 11.6172C59.8473 11.6172 60.6958 11.7804 61.4789 12.1067C62.2621 12.4331 62.8821 12.8573 63.3716 13.3468C63.8611 13.8362 64.1548 14.3257 64.22 14.7826C64.2853 15.2068 64.0895 15.5984 63.6327 15.9573C63.1758 16.3163 62.719 16.871 62.2947 17.5237C61.9032 18.0784 61.4137 18.8289 60.8916 19.71C60.3695 20.5911 59.8147 21.57 59.2926 22.6143C58.7378 23.6585 58.2484 24.6701 57.7589 25.6817C57.2694 26.6933 56.9105 27.5417 56.6168 28.2922C56.5515 28.4228 56.5515 28.5207 56.6168 28.5859C56.682 28.6186 56.7473 28.5859 56.9105 28.488C57.7915 27.8028 58.6726 27.248 59.521 26.8564C60.3695 26.4322 61.1526 26.1712 61.8705 26.0733C63.5348 25.7796 64.8727 25.9754 65.8843 26.628C66.8959 27.2807 67.5485 28.3575 67.8748 29.8912C68.0706 30.7723 68.2338 31.7186 68.3317 32.6976C68.4622 33.6765 68.5927 34.6881 68.7559 35.6997C68.9191 36.7113 69.278 37.3966 69.8328 37.7556C70.3875 38.1145 71.1707 38.2124 72.117 38.0819C73.1612 37.9187 74.1402 37.5271 74.9886 36.8745C75.8697 36.2218 76.6202 35.4387 77.3055 34.4597C77.9908 33.5134 78.5455 32.4692 79.0024 31.327C79.4592 30.1849 79.8182 29.0428 80.1119 27.9007C80.4382 27.9333 80.6014 27.9659 80.895 27.9986C80.895 30.2828 80.634 32.2407 80.1445 33.8723C79.655 35.5366 79.0024 36.9071 78.1539 37.984C77.3381 39.0608 76.3592 39.9093 75.2497 40.5293C74.1402 41.1493 72.9981 41.5409 71.7907 41.7367L71.8233 41.7693Z" fill="white"/>
<path d="M113.462 35.6668C112.581 35.7647 111.602 35.7974 110.59 35.7974C109.579 35.7974 108.534 35.6995 107.523 35.5363C106.511 35.3405 105.532 35.0142 104.651 34.5247C103.248 33.7742 102.073 32.7626 101.192 31.4899C100.311 30.1846 99.7237 28.3899 99.43 26.0077C99.2342 24.2782 99.2994 22.5814 99.5931 20.9171C99.8868 19.2203 100.474 17.6213 101.323 16.0876C102.171 14.5539 103.313 13.1833 104.716 11.9759C104.88 11.8128 104.912 11.7149 104.88 11.6496C104.847 11.5844 104.716 11.5844 104.521 11.6496C103.019 12.1391 101.421 12.7265 99.7889 13.4118C98.1573 14.097 96.6562 14.7823 95.3183 15.4676C93.9804 16.1528 92.9035 16.7402 92.153 17.2623C91.7614 17.5234 91.3698 17.8171 90.9782 18.176C90.5867 18.535 90.1298 18.7308 89.6077 18.796C89.1835 18.8613 88.694 18.796 88.1719 18.6003C87.6498 18.4045 87.1603 18.176 86.6382 17.8171C86.1487 17.4908 85.7245 17.1318 85.3655 16.7076C85.0066 16.316 84.7782 15.8918 84.6803 15.5002C84.5824 15.1086 84.5171 14.7497 84.5171 14.3581C84.5171 13.9665 84.5171 13.6402 84.5171 13.3139C84.7455 13.216 84.876 13.1507 85.1045 13.0528C85.4961 13.5096 85.9529 13.9012 86.475 14.2602C86.9971 14.6191 87.4866 14.7497 87.9761 14.6844C88.5308 14.6191 89.3466 14.4233 90.4235 14.0644C91.5004 13.7381 92.7077 13.3139 94.1109 12.7917C95.5141 12.2696 97.0152 11.7475 98.6468 11.1275C100.278 10.5401 101.975 9.95275 103.639 9.36537C105.108 8.87589 106.478 8.38641 107.751 7.99482C109.024 7.60324 110.133 7.27692 111.08 7.01586C112.026 6.7548 112.711 6.59164 113.135 6.55901C113.723 6.49375 114.278 6.49375 114.865 6.52638C115.452 6.52638 115.974 6.65691 116.431 6.82007C116.953 7.01586 117.378 7.24428 117.704 7.50534C118.03 7.7664 118.226 8.12535 118.259 8.54957C118.291 8.94115 118.161 9.30011 117.867 9.5938C117.573 9.88748 117.117 10.0833 116.562 10.1159C116.072 10.1485 115.518 10.1812 114.898 10.2138C114.278 10.2138 113.625 10.2791 112.94 10.3443C111.993 10.4422 110.916 10.6054 109.709 10.8991C108.502 11.1928 107.425 11.7475 106.446 12.5307C106.054 12.7917 105.597 13.2486 105.075 13.9012C104.521 14.5212 104.031 15.337 103.542 16.3486C103.052 17.3602 102.693 18.535 102.465 19.8729C102.204 21.2108 102.204 22.8098 102.399 24.5719C102.563 26.0404 102.889 27.2151 103.346 28.0636C103.803 28.912 104.325 29.5646 104.912 30.0215C105.5 30.4783 106.054 30.8047 106.576 31.0331C107.425 31.3594 108.306 31.5552 109.252 31.6205C110.199 31.6857 111.08 31.6857 111.895 31.6205C112.711 31.5552 113.331 31.4899 113.755 31.4573C114.147 31.4247 114.571 31.4573 115.028 31.6531C115.485 31.8163 115.844 32.0773 116.17 32.371C116.497 32.6973 116.66 33.0563 116.725 33.4479C116.758 33.9047 116.627 34.2963 116.366 34.59C116.072 34.8837 115.681 35.1121 115.159 35.2753C114.669 35.4384 114.114 35.5363 113.494 35.6016L113.462 35.6668Z" fill="white"/>
<path d="M145.082 33.7416C142.341 33.8721 140.09 33.709 138.295 33.2195C136.5 32.73 135.129 31.9468 134.183 30.9026C133.237 29.8584 132.617 28.5857 132.356 27.1173C132.095 25.6162 132.127 23.952 132.519 22.0919C132.878 22.0919 133.074 22.0593 133.433 22.0267C133.563 23.332 133.824 24.5067 134.15 25.5836C134.477 26.6604 135.032 27.5415 135.749 28.2594C136.5 28.9773 137.512 29.4994 138.85 29.8257C140.155 30.1521 141.884 30.25 144.005 30.1521C146.159 30.0542 147.921 29.8257 149.324 29.4994C150.728 29.1731 151.837 28.8468 152.686 28.5531C153.501 28.2594 154.089 28.0962 154.448 28.0636C154.872 28.0636 155.329 28.0962 155.818 28.2594C156.308 28.3899 156.732 28.6184 157.123 28.912C157.482 29.2057 157.678 29.5647 157.711 30.0215C157.711 30.5436 157.613 30.9352 157.319 31.2289C157.026 31.5226 156.536 31.8163 155.818 32.0774C154.839 32.4689 153.403 32.7953 151.576 33.1216C149.749 33.4479 147.595 33.6763 145.115 33.7742L145.082 33.7416ZM137.936 14.6192C138.784 13.9665 139.698 13.2486 140.677 12.4981C141.656 11.7476 142.472 11.0949 143.092 10.6054C143.418 10.3117 143.353 10.1812 142.863 10.1812C141.427 10.1812 140.024 10.1812 138.784 10.0833C137.544 9.95279 136.435 9.6591 135.423 9.13699C134.412 8.61487 133.498 7.76644 132.682 6.59168C132.878 6.36326 132.976 6.23273 133.172 6.00431C134.053 6.49379 134.868 6.85274 135.652 7.1138C136.435 7.34222 137.218 7.50538 138.066 7.57065C138.915 7.63591 139.861 7.63591 140.971 7.57065C142.243 7.50538 143.32 7.40749 144.136 7.27696C144.952 7.14643 145.637 6.98327 146.192 6.85274C146.746 6.68958 147.203 6.55905 147.628 6.46116C148.019 6.36326 148.476 6.298 148.933 6.26536C149.357 6.26536 149.847 6.26536 150.369 6.39589C150.891 6.49379 151.38 6.62432 151.87 6.82011C152.359 7.0159 152.718 7.24433 153.012 7.50538C153.306 7.76644 153.469 8.06013 153.469 8.35382C153.469 9.20225 152.881 9.78963 151.674 10.0507C151.087 10.1812 150.434 10.3117 149.716 10.4749C148.998 10.6381 148.182 10.8991 147.366 11.1928C146.649 11.4539 145.767 11.7802 144.756 12.2044C143.744 12.6613 142.7 13.1181 141.591 13.6728C140.514 14.195 139.437 14.7497 138.327 15.3045C138.132 15.0434 138.034 14.9129 137.838 14.6518L137.936 14.6192ZM157.776 8.41908C157.45 8.41908 157.156 8.25592 156.862 7.9296C156.569 7.63591 156.21 7.24433 155.851 6.78748C155.459 6.29799 154.937 5.71062 154.35 5.09061C153.762 4.4706 152.979 3.81796 152 3.16531C152.163 2.90426 152.261 2.77373 152.424 2.51267C153.567 2.83899 154.578 3.19795 155.459 3.58953C156.34 3.98112 157.091 4.40533 157.678 4.89481C158.168 5.2864 158.494 5.64535 158.69 6.00431C158.886 6.36326 159.016 6.75484 159.016 7.14643C159.016 7.50538 158.918 7.79907 158.69 8.0275C158.461 8.25592 158.135 8.38645 157.776 8.38645V8.41908ZM161.529 5.51482C161.17 5.51482 160.844 5.3843 160.55 5.05798C160.256 4.73165 159.897 4.34007 159.473 3.85059C159.049 3.39374 158.559 2.90426 157.972 2.38214C157.417 1.86003 156.601 1.27265 155.557 0.554746C155.72 0.326321 155.818 0.228425 155.981 0C157.091 0.228425 158.102 0.489481 158.984 0.815802C159.865 1.14212 160.582 1.50108 161.137 1.89266C161.659 2.28425 162.051 2.6432 162.279 3.03479C162.508 3.42637 162.638 3.85059 162.638 4.2748C162.638 4.66639 162.573 4.96008 162.377 5.1885C162.181 5.3843 161.92 5.51482 161.529 5.51482Z" fill="white"/>
<path d="M177.878 33.9047C177.519 33.9047 177.127 33.8068 176.735 33.5783C176.344 33.3499 175.92 32.9257 175.463 32.273C174.875 31.4246 174.353 30.1193 173.864 28.4225C173.374 26.693 173.146 24.735 173.113 22.5161C173.113 21.015 173.179 19.5465 173.407 18.176C173.603 16.8054 173.864 15.5328 174.158 14.358C174.451 13.1833 174.68 12.2043 174.875 11.4864C175.006 10.9643 175.202 10.4422 175.332 9.88743C175.463 9.33268 175.593 8.77794 175.724 8.25582C175.822 7.70108 175.887 7.17897 175.887 6.65685C175.887 5.80842 175.626 4.95998 175.136 4.14418C174.647 3.32838 174.158 2.6431 173.668 2.08836C173.864 1.89257 173.962 1.79467 174.158 1.59888C174.647 1.76204 175.169 1.9252 175.659 2.12099C176.148 2.31678 176.67 2.61047 177.16 2.90416C177.649 3.23048 178.139 3.6547 178.595 4.20944C179.052 4.76419 179.444 5.35157 179.77 5.93895C180.097 6.55896 180.227 7.1137 180.227 7.63581C180.227 7.96214 180.129 8.32109 179.933 8.68004C179.738 9.039 179.477 9.46321 179.183 9.98533C178.857 10.5074 178.53 11.1927 178.171 11.9759C177.91 12.6285 177.551 13.5749 177.127 14.6843C176.703 15.8265 176.344 17.0339 176.018 18.3391C175.691 19.6444 175.561 20.8518 175.561 22.0266C175.561 22.8424 175.626 23.5276 175.756 24.0824C175.887 24.6371 176.05 25.094 176.213 25.4203C176.376 25.714 176.54 25.8772 176.703 25.8772C176.866 25.8772 177.029 25.7793 177.192 25.5182C177.388 25.1919 177.682 24.735 178.041 24.0498C178.4 23.3971 178.759 22.6792 179.15 21.8634C179.542 21.0476 179.933 20.2644 180.325 19.4813C180.717 18.6981 181.043 18.0781 181.304 17.5886C181.63 17.7191 181.793 17.7844 182.12 17.9476C181.891 18.5349 181.663 19.1549 181.402 19.8729C181.141 20.5908 180.88 21.3413 180.619 22.0918C180.358 22.8424 180.129 23.5603 179.933 24.2129C179.738 24.8656 179.542 25.4529 179.444 25.9098C179.281 26.5298 179.15 27.1172 179.052 27.6393C178.954 28.1614 178.889 28.6183 178.889 28.9446C178.889 29.6625 178.987 30.2499 179.118 30.772C179.281 31.2941 179.346 31.7836 179.346 32.273C179.346 32.7299 179.215 33.0888 178.954 33.3825C178.693 33.6762 178.302 33.8394 177.78 33.8394L177.878 33.9047ZM191.877 33.2194C190.669 33.2194 189.56 33.0236 188.548 32.6646C187.537 32.3057 186.753 31.7836 186.166 31.0657C185.579 30.3478 185.285 29.4667 185.285 28.3572C185.285 27.313 185.644 26.4319 186.395 25.6814C187.112 24.9308 188.091 24.3761 189.364 24.0171C190.604 23.6582 192.007 23.4624 193.574 23.495C195.303 23.5276 196.935 23.7887 198.436 24.2456C199.937 24.7024 201.275 25.2245 202.417 25.8445C203.559 26.4645 204.473 27.0845 205.125 27.6719C205.713 28.194 206.137 28.6835 206.431 29.1404C206.692 29.5972 206.822 30.152 206.822 30.7393C206.822 31.1962 206.659 31.5551 206.431 31.8488C206.17 32.1425 205.843 32.3057 205.386 32.273C205.027 32.273 204.701 32.1099 204.375 31.8488C204.081 31.5878 203.787 31.3267 203.461 31.0004C202.188 29.6625 200.916 28.6183 199.708 27.8351C198.501 27.0519 197.294 26.4645 196.086 26.1056C194.879 25.7466 193.639 25.5508 192.301 25.5182C191.453 25.5182 190.604 25.5835 189.821 25.7793C189.038 25.9751 188.352 26.2361 187.798 26.6277C187.243 27.0193 186.982 27.5088 186.982 28.0961C186.982 28.814 187.341 29.3688 188.026 29.7277C188.744 30.0867 189.788 30.2825 191.191 30.3151C192.693 30.3151 193.835 30.0541 194.585 29.4341C195.336 28.814 195.727 27.9003 195.76 26.7256C195.76 25.7466 195.76 24.6698 195.76 23.5603C195.76 22.4508 195.76 21.3739 195.76 20.2971C195.76 19.2528 195.727 18.2412 195.695 17.2949C195.695 16.3486 195.695 15.5654 195.695 14.9128C195.695 14.2601 195.695 13.5749 195.727 12.8243C195.727 12.1064 195.727 11.3885 195.727 10.7359C195.727 10.0832 195.695 9.52848 195.629 9.13689C195.564 8.54951 195.27 8.1253 194.748 7.89687C194.226 7.63581 193.769 7.44002 193.378 7.34213C193.965 7.1137 194.259 6.98317 194.879 6.75475C195.336 6.82001 195.825 6.91791 196.315 7.01581C196.804 7.14633 197.261 7.24423 197.718 7.40739C198.175 7.53792 198.534 7.73371 198.827 7.89687C199.121 8.09266 199.284 8.28846 199.349 8.51688C199.382 8.74531 199.349 9.00636 199.252 9.36532C198.991 10.1159 198.795 11.0296 198.697 12.1064C198.599 13.1833 198.534 14.2601 198.501 15.4023C198.468 16.6423 198.501 17.8497 198.534 19.057C198.599 20.2644 198.664 21.4066 198.729 22.5487C198.795 23.6582 198.86 24.7024 198.925 25.6814C198.991 26.6277 199.023 27.4435 198.991 28.1288C198.991 29.2056 198.664 30.1193 198.109 30.8699C197.555 31.653 196.772 32.2404 195.695 32.632C194.65 33.0236 193.345 33.2194 191.779 33.1867L191.877 33.2194ZM192.529 16.7728C191.55 16.7728 190.637 16.6096 189.821 16.3486C188.972 16.0875 188.222 15.6633 187.537 15.0433C186.851 14.4233 186.231 13.6075 185.677 12.5306C185.905 12.3348 186.036 12.2369 186.264 12.0411C186.819 12.4327 187.341 12.7917 187.83 13.0854C188.352 13.3791 188.94 13.6401 189.592 13.8359C190.245 14.0317 190.996 14.1296 191.844 14.1296C193.019 14.1296 194.03 14.097 194.912 13.9664C195.793 13.8359 196.576 13.7054 197.228 13.5749C198.109 13.4117 198.991 13.1833 199.839 12.9548C200.687 12.7264 201.438 12.498 202.058 12.2696C202.58 12.0738 202.972 11.9106 203.233 11.8127C203.494 11.6822 203.657 11.6169 203.755 11.6496C203.885 11.6496 204.114 11.6496 204.44 11.7148C204.766 11.7475 205.06 11.8454 205.386 11.9433C205.68 12.0738 205.974 12.2369 206.17 12.4327C206.398 12.6612 206.496 12.9548 206.496 13.3138C206.496 13.6728 206.365 13.9991 206.137 14.2601C205.909 14.5212 205.484 14.7496 204.897 14.9454C203.853 15.337 202.645 15.6307 201.307 15.8917C199.937 16.1528 198.632 16.3486 197.392 16.5117C196.51 16.6096 195.695 16.7075 194.944 16.7402C194.161 16.8054 193.378 16.8054 192.562 16.8054L192.529 16.7728ZM193.508 7.76634C192.595 7.76634 191.746 7.63581 190.963 7.40739C190.147 7.17897 189.429 6.78738 188.777 6.26527C188.124 5.74315 187.569 5.05788 187.08 4.17681C187.276 4.01365 187.341 3.91576 187.537 3.7526C188.287 4.20944 189.038 4.53577 189.788 4.79682C190.539 5.02525 191.322 5.15578 192.17 5.15578C193.215 5.15578 194.259 5.12314 195.27 4.99261C196.315 4.86209 197.228 4.69893 198.077 4.53577C198.925 4.37261 199.578 4.20944 200.002 4.04628C200.72 3.81786 201.275 3.62207 201.634 3.45891C201.993 3.29575 202.286 3.19785 202.482 3.19785C202.906 3.19785 203.331 3.29575 203.755 3.39364C204.179 3.52417 204.505 3.68733 204.766 3.94839C205.027 4.20944 205.158 4.53577 205.158 4.89472C205.158 5.22104 205.093 5.4821 204.93 5.64526C204.766 5.80842 204.538 5.93895 204.244 6.06947C203.657 6.2979 202.906 6.49369 201.96 6.68948C201.014 6.88528 200.035 7.08107 198.958 7.24423C197.914 7.40739 196.869 7.53792 195.923 7.60318C194.944 7.70108 194.161 7.73371 193.508 7.70108V7.76634Z" fill="white"/>
<path d="M222.159 35.1449C226.989 34.1986 230.807 32.6649 233.548 30.4459C236.322 28.2269 237.888 25.2248 238.182 21.3742C238.345 19.351 238.116 17.7194 237.496 16.512C236.876 15.3046 235.93 14.652 234.658 14.5541C234.005 14.4888 233.32 14.5541 232.569 14.7825C231.819 14.9783 231.101 15.272 230.415 15.5983C229.697 15.9572 229.045 16.3162 228.425 16.6751C227.805 17.0667 227.25 17.3604 226.858 17.6215C226.402 17.9152 225.912 18.2741 225.423 18.6657C224.901 19.0573 224.378 19.2204 223.824 19.1878C223.302 19.1878 222.812 18.9594 222.323 18.5678C221.833 18.1762 221.409 17.752 221.017 17.2299C220.626 16.7078 220.365 16.2183 220.234 15.7614C220.104 15.272 220.104 14.7498 220.234 14.1625C220.365 13.5751 220.495 13.0203 220.691 12.4982C220.952 12.433 221.083 12.433 221.344 12.3677C221.507 12.7919 221.703 13.2161 221.931 13.6077C222.159 13.9993 222.42 14.3256 222.682 14.5541C222.975 14.7825 223.269 14.913 223.563 14.9456C224.117 14.9783 224.803 14.8804 225.651 14.6193C226.499 14.3583 227.478 14.0972 228.523 13.7383C229.567 13.4119 230.676 13.1182 231.819 12.9225C232.961 12.694 234.07 12.6288 235.18 12.7267C237.529 12.9225 239.357 13.8688 240.629 15.533C241.902 17.2299 242.391 19.4489 242.163 22.2226C241.902 25.1921 240.923 27.6395 239.259 29.5648C237.594 31.4901 235.343 32.9912 232.504 34.0354C229.665 35.0796 226.304 35.7323 222.388 35.9933C222.29 35.6344 222.257 35.4712 222.159 35.1123V35.1449ZM226.597 8.77817C227.185 8.51712 227.805 8.22343 228.457 7.92974C229.11 7.63605 229.697 7.34236 230.285 7.04867C230.84 6.75498 231.329 6.52656 231.753 6.29813C231.231 6.16761 230.578 5.97181 229.73 5.71076C228.882 5.4497 228.033 5.02548 227.185 4.40547C226.304 3.78546 225.553 2.93703 224.901 1.82754C225.096 1.66438 225.194 1.56648 225.39 1.40332C226.695 2.38228 227.968 3.03493 229.241 3.36125C230.513 3.68757 231.721 3.91599 232.83 3.98126C233.679 4.04652 234.429 4.01389 235.049 3.94862C235.669 3.85073 236.159 3.8181 236.518 3.85073C237.138 3.88336 237.725 4.04652 238.312 4.30758C238.9 4.56863 239.389 4.89495 239.781 5.28654C240.172 5.67812 240.368 6.06971 240.303 6.52656C240.303 6.85288 240.107 7.0813 239.813 7.2771C239.52 7.47289 239.063 7.57079 238.475 7.53815C238.084 7.53815 237.529 7.47289 236.876 7.47289C236.224 7.47289 235.571 7.53815 235.016 7.60342C234.266 7.70131 233.352 7.83184 232.341 8.06027C231.329 8.28869 230.35 8.54975 229.371 8.81081C228.425 9.07186 227.576 9.30029 226.924 9.49608C226.793 9.23502 226.728 9.07186 226.597 8.81081V8.77817Z" fill="white"/>
<path d="M265.593 39.5173C264.287 39.3542 263.047 39.0279 261.905 38.5057C260.763 37.9836 259.752 37.2984 258.903 36.3847C258.055 35.471 257.402 34.3615 257.01 33.0236C256.586 31.7183 256.488 30.1519 256.684 28.3572C256.88 26.3992 257.435 24.5718 258.25 22.875C259.099 21.1781 260.11 19.5791 261.351 18.0781C262.591 16.577 263.896 15.2064 265.299 13.9664C264.81 13.9664 264.287 13.9664 263.667 13.9011C263.047 13.8359 262.46 13.7054 261.938 13.5422C261.187 13.2811 260.535 12.8243 260.045 12.2369C259.556 11.6495 259.099 10.8011 258.642 9.65898C258.838 9.49582 258.936 9.39792 259.132 9.23476C259.654 9.62634 260.208 9.9853 260.763 10.2464C261.318 10.5074 261.938 10.7032 262.558 10.7685C263.145 10.8337 263.798 10.8664 264.516 10.8664C265.234 10.8664 265.919 10.8011 266.604 10.6706C267.29 10.5727 267.91 10.4095 268.432 10.2464C268.986 10.0506 269.443 9.85477 269.672 9.75687C269.933 9.65898 270.194 9.59371 270.487 9.62634C270.912 9.69161 271.369 9.85477 271.76 10.1811C272.184 10.5074 272.543 10.8664 272.804 11.2579C273.098 11.6495 273.196 11.9759 273.163 12.2369C273.131 12.5306 273 12.759 272.804 12.9548C272.609 13.1506 272.217 13.3138 271.728 13.4769C271.173 13.6401 270.488 13.8033 269.77 13.9664C269.052 14.1296 268.301 14.4885 267.583 14.978C266.865 15.4675 266.05 16.1201 265.168 16.9686C264.287 17.7844 263.439 18.7633 262.591 19.8728C261.775 20.9823 261.057 22.2223 260.469 23.5929C259.882 24.9634 259.49 26.4319 259.327 27.9982C259.164 29.4667 259.36 30.7719 259.947 31.8814C260.502 32.9909 261.351 33.872 262.395 34.5246C263.472 35.1773 264.679 35.6015 266.017 35.7647C267.942 35.9931 269.606 35.8626 271.042 35.3078C272.478 34.7857 273.718 33.9046 274.762 32.7299C275.807 31.5551 276.655 30.054 277.308 28.2919C277.96 26.4971 278.45 24.4739 278.776 22.2223C278.907 21.276 279.004 20.3297 279.07 19.4486C279.135 18.5675 279.102 17.6212 279.037 16.6096C279.037 16.2507 279.037 15.7938 278.972 15.3043C278.939 14.8148 278.907 14.2927 278.907 13.8033C278.907 13.2811 278.907 12.8569 278.972 12.498C279.07 11.8127 279.331 11.2906 279.722 10.9316C280.147 10.6053 280.571 10.4748 281.028 10.5727C281.485 10.6379 281.876 10.8011 282.202 11.0948C282.529 11.3885 282.757 11.7148 282.953 12.1064C283.116 12.498 283.181 12.9222 283.116 13.3464C282.953 14.3906 282.822 15.4675 282.725 16.5443C282.627 17.6212 282.594 18.6328 282.627 19.6444C282.692 20.7865 282.92 21.8634 283.345 22.9076C283.769 23.9192 284.258 24.8655 284.813 25.714C285.368 26.5624 285.89 27.2803 286.412 27.9003C286.771 28.3245 287.097 28.7814 287.293 29.3035C287.521 29.8256 287.587 30.4783 287.489 31.2614C287.424 31.7835 287.228 32.2078 286.934 32.5341C286.64 32.8604 286.281 33.0236 285.825 32.9257C285.368 32.8604 284.976 32.632 284.585 32.2404C284.193 31.8488 283.867 31.392 283.573 30.8698C283.279 30.3477 282.953 29.6951 282.627 28.9445C282.3 28.194 282.007 27.4108 281.746 26.4971C281.485 25.6161 281.223 24.6697 280.995 23.6908C280.897 23.1034 280.767 22.7771 280.603 22.7771C280.44 22.7771 280.31 23.0708 280.212 23.6908C280.147 24.1803 280.049 24.8329 279.951 25.6161C279.853 26.4319 279.69 27.3129 279.494 28.2919C279.298 29.2709 279.037 30.2825 278.711 31.3267C278.384 32.3383 277.928 33.4151 277.275 34.492C276.622 35.5689 275.774 36.5152 274.73 37.3636C273.685 38.2121 272.413 38.8321 270.912 39.2237C269.411 39.6152 267.681 39.7131 265.658 39.4521L265.593 39.5173ZM287.913 15.957C287.587 15.8917 287.293 15.6633 287.13 15.3043C286.934 14.9454 286.706 14.4885 286.477 13.9338C286.216 13.3464 285.922 12.6611 285.564 11.9759C285.205 11.2906 284.65 10.5074 283.899 9.62634C284.128 9.43055 284.258 9.33266 284.519 9.16949C285.433 9.69161 286.249 10.2464 286.934 10.8011C287.619 11.3558 288.174 11.9759 288.566 12.5306C288.925 13.0201 289.186 13.4443 289.284 13.8359C289.381 14.2275 289.414 14.5864 289.316 14.9454C289.218 15.337 289.055 15.6307 288.827 15.7938C288.566 15.957 288.272 16.0222 287.946 15.957H287.913ZM291.796 13.7054C291.47 13.6401 291.209 13.4117 291.046 13.0201C290.883 12.6611 290.589 12.2043 290.295 11.7148C289.969 11.1927 289.61 10.5727 289.186 9.92003C288.761 9.26739 288.109 8.54948 287.293 7.76631C287.521 7.57052 287.652 7.47263 287.88 7.2442C288.892 7.70105 289.773 8.1579 290.458 8.61475C291.144 9.0716 291.731 9.59371 292.22 10.1158C292.645 10.5727 292.938 11.0295 293.069 11.4537C293.199 11.878 293.232 12.2695 293.167 12.5959C293.102 12.9222 292.971 13.2485 292.71 13.4443C292.482 13.6401 292.155 13.738 291.764 13.6401L291.796 13.7054Z" fill="white"/>
<path d="M305.436 24.2458C304.523 24.0826 303.707 23.8216 303.022 23.4626C302.336 23.1037 301.749 22.5489 301.292 21.7984C300.835 21.0478 300.476 20.0363 300.215 18.7636C300.476 18.6331 300.607 18.5678 300.901 18.4373C301.716 19.3183 302.467 19.971 303.12 20.3952C303.772 20.8194 304.588 21.1131 305.469 21.2763C306.644 21.5047 307.851 21.6352 309.059 21.6679C310.266 21.6679 311.31 21.6679 312.191 21.6352C313.725 21.5373 315.03 21.4068 316.205 21.1784C317.347 20.95 318.359 20.7215 319.207 20.4931C319.599 20.3626 319.958 20.232 320.251 20.1668C320.545 20.1015 320.806 20.0689 320.969 20.1015C321.263 20.1668 321.589 20.2973 321.948 20.4605C322.307 20.6236 322.601 20.8847 322.829 21.1784C323.058 21.4721 323.156 21.7984 323.058 22.19C322.96 22.6468 322.666 23.0058 322.177 23.2342C321.687 23.4626 320.806 23.6911 319.566 23.8868C319.142 23.9521 318.457 24.05 317.543 24.1479C316.629 24.2458 315.585 24.3437 314.476 24.4416C313.366 24.5395 312.257 24.6047 311.212 24.6047C310.397 24.6047 309.45 24.6047 308.341 24.5395C307.231 24.4742 306.252 24.3763 305.404 24.2458H305.436ZM299.008 44.0535C298.551 43.9556 298.159 43.6619 297.931 43.1398C297.67 42.6177 297.605 42.0629 297.703 41.4429C297.768 41.0187 297.898 40.6597 298.094 40.3987C298.29 40.1376 298.551 39.8766 298.845 39.5829C299.138 39.2892 299.497 38.9302 299.856 38.4734C300.933 37.3313 302.108 35.9281 303.413 34.2638C304.719 32.5996 306.056 30.5438 307.46 28.1616C307.949 27.3458 308.439 26.4321 308.928 25.4206C309.418 24.409 309.907 23.3647 310.397 22.3531C310.853 21.3089 311.278 20.3626 311.637 19.4815C311.995 18.6004 312.289 17.8499 312.42 17.2625C312.55 16.8057 312.55 16.4467 312.485 16.2183C312.42 15.9899 312.224 15.6636 311.93 15.4025C311.637 15.1414 311.245 14.913 310.853 14.6846C310.462 14.4562 310.038 14.2277 309.613 14.032C309.679 13.7709 309.711 13.6077 309.776 13.3467C310.331 13.2814 310.853 13.2488 311.343 13.2488C311.832 13.2488 312.387 13.2814 312.942 13.4119C313.627 13.5751 314.28 13.8035 314.965 14.1625C315.65 14.4888 316.205 14.8804 316.629 15.3046C317.053 15.7288 317.249 16.0878 317.184 16.4141C317.119 16.7078 316.988 17.0015 316.792 17.2952C316.597 17.5888 316.336 17.9804 316.042 18.4047C315.716 18.8289 315.357 19.4162 314.965 20.1342C314.639 20.7215 314.214 21.57 313.692 22.6142C313.17 23.6584 312.55 24.8332 311.93 26.0732C311.278 27.3132 310.56 28.5532 309.874 29.6954C309.254 30.7722 308.569 31.9796 307.851 33.2523C307.101 34.5249 306.35 35.7323 305.6 36.9723C304.849 38.1797 304.099 39.2892 303.413 40.3334C302.728 41.345 302.108 42.1608 301.586 42.7808C301.162 43.2703 300.803 43.6293 300.411 43.8903C300.052 44.1514 299.563 44.2166 299.008 44.1187V44.0535ZM320.676 47.8714C318.881 47.5125 317.347 46.9577 316.107 46.2725C314.834 45.5546 313.888 44.7061 313.203 43.6619C312.55 42.6177 312.257 41.3776 312.191 40.105C312.159 39.4197 312.126 38.6365 312.257 37.9513C312.387 37.2334 312.518 36.5807 312.648 36.026C312.974 36.026 313.138 36.0586 313.464 36.0912C313.464 36.6134 313.497 37.2334 313.562 37.9186C313.627 38.6039 313.79 39.2566 314.084 39.9092C314.606 41.1166 315.422 42.0303 316.499 42.7156C317.576 43.3682 318.913 43.8903 320.545 44.2166C321.785 44.4777 322.764 44.6082 323.547 44.6735C324.33 44.7061 324.95 44.7388 325.473 44.6735C325.962 44.6735 326.354 44.6735 326.647 44.7388C327.104 44.8366 327.528 44.9998 327.92 45.1956C328.312 45.3914 328.638 45.6851 328.834 46.044C329.029 46.403 329.095 46.7946 328.997 47.2514C328.899 47.6756 328.605 48.002 328.083 48.1978C327.561 48.3935 326.974 48.4914 326.223 48.4914C325.603 48.4914 324.82 48.4588 323.906 48.3935C322.993 48.3283 321.916 48.1651 320.708 47.9041L320.676 47.8714ZM321.132 33.2196C321.622 33.0238 322.144 32.7954 322.764 32.567C323.351 32.3059 323.906 32.0775 324.428 31.8164C324.95 31.588 325.277 31.3922 325.473 31.2617C325.766 31.0659 325.734 30.9027 325.375 30.6743C324.983 30.4459 324.461 30.2175 323.841 30.0217C323.221 29.8259 322.601 29.6627 321.981 29.5322C321.263 29.4017 320.447 29.2711 319.599 29.2059C318.718 29.1406 317.837 29.0753 316.923 29.108C316.89 28.8143 316.858 28.6511 316.825 28.3248C317.935 27.9985 319.24 27.7374 320.741 27.6395C322.242 27.5416 323.743 27.6395 325.244 27.9332C326.549 28.1943 327.626 28.5532 328.442 28.9774C329.258 29.4017 329.911 29.7606 330.302 30.0869C330.792 30.4785 331.085 30.9027 331.281 31.327C331.444 31.7512 331.509 32.1428 331.412 32.5017C331.314 32.9586 331.053 33.2523 330.661 33.4154C330.269 33.5459 329.682 33.5786 328.997 33.4154C328.638 33.3502 328.246 33.2849 327.855 33.2849C327.463 33.2849 326.974 33.2849 326.419 33.3175C325.668 33.3501 324.787 33.4154 323.906 33.5133C323.025 33.6112 322.177 33.7417 321.394 33.8723C321.263 33.6112 321.23 33.5133 321.1 33.2523L321.132 33.2196ZM331.477 25.91C331.183 25.8448 330.889 25.5837 330.694 25.2248C330.498 24.8658 330.269 24.409 330.008 23.8868C329.747 23.2995 329.388 22.6142 328.964 21.8637C328.54 21.1131 327.953 20.2973 327.202 19.4162C327.43 19.2205 327.528 19.1226 327.757 18.9268C328.801 19.5141 329.682 20.1015 330.465 20.6889C331.216 21.2763 331.836 21.8637 332.293 22.5163C332.652 23.0384 332.913 23.4953 333.043 23.8868C333.174 24.2784 333.174 24.67 333.043 25.029C332.945 25.3553 332.782 25.649 332.488 25.8448C332.195 26.0079 331.836 26.0732 331.444 25.9753L331.477 25.91ZM335.882 23.9847C335.523 23.9195 335.262 23.691 335.034 23.2995C334.838 22.9079 334.577 22.4184 334.283 21.8637C333.99 21.3089 333.631 20.7215 333.206 20.1015C332.782 19.4489 332.162 18.6983 331.314 17.752C331.509 17.5562 331.64 17.4583 331.836 17.2625C332.913 17.7846 333.826 18.3068 334.61 18.8289C335.36 19.351 335.98 19.8731 336.437 20.3952C336.861 20.8847 337.155 21.3415 337.285 21.7984C337.416 22.2226 337.449 22.6468 337.351 23.1037C337.253 23.4953 337.09 23.7563 336.829 23.9195C336.567 24.0826 336.274 24.1153 335.915 24.05L335.882 23.9847Z" fill="white"/>
<path d="M350.567 53.6799C349.816 53.4841 349.261 53.0925 348.87 52.4725C348.478 51.8525 348.38 51.1998 348.543 50.5472C348.707 49.8293 349.131 49.3072 349.751 48.9156C350.371 48.5566 351.056 48.4588 351.839 48.6545C352.59 48.8503 353.145 49.2419 353.536 49.8619C353.895 50.4819 353.993 51.1346 353.797 51.8525C353.634 52.5051 353.242 53.0272 352.622 53.3862C352.002 53.7452 351.317 53.843 350.567 53.6473V53.6799ZM352.231 44.5755C352.688 41.7692 352.916 40.366 353.373 37.5596C353.569 35.4385 353.732 33.6764 353.928 32.2406C354.091 30.8048 354.254 29.5974 354.417 28.6184C354.548 27.6395 354.711 26.8237 354.874 26.171C355.102 25.2573 355.527 24.6373 356.114 24.311C356.701 23.9847 357.354 23.8868 358.072 24.0826C358.757 24.2457 359.312 24.6373 359.671 25.2247C360.03 25.8121 360.095 26.5626 359.867 27.4763C359.704 28.129 359.443 28.9121 359.116 29.8585C358.79 30.7722 358.366 31.9143 357.811 33.2522C357.256 34.5901 356.571 36.2217 355.755 38.1796C354.809 40.8555 354.352 42.226 353.406 44.9019C352.949 44.7713 352.688 44.7387 352.231 44.6082V44.5755Z" fill="white"/>
</svg>
